<?xml version="1.0" encoding="UTF-8"?>
<!DOCTYPE svg PUBLIC "-//W3C//DTD SVG 1.1//EN" "http://www.w3.org/Graphics/SVG/1.1/DTD/svg11.dtd">
<!-- Creator: CorelDRAW 2020 (64-Bit) -->
<svg xmlns="http://www.w3.org/2000/svg" xml:space="preserve" width="11811px" height="11811px" version="1.1" style="shape-rendering:geometricPrecision; text-rendering:geometricPrecision; image-rendering:optimizeQuality; fill-rule:evenodd; clip-rule:evenodd"
viewBox="0 0 11811 11811"
 xmlns:xlink="http://www.w3.org/1999/xlink"
 xmlns:xodm="http://www.corel.com/coreldraw/odm/2003">
 <defs>
  <style type="text/css">
   <![CDATA[
    .fil1 {fill:#999999}
    .fil0 {fill:#999999}
    .fil2 {fill:white}
   ]]>
  </style>
 </defs>
 <g id="Слой_x0020_1">
  <metadata id="CorelCorpID_0Corel-Layer"/>
  <path class="fil0" d="M4112.09 1353.83l-1359.08 0 0 4476.33 323.59 0 0 399.09 291.23 0 0 1100.21 593.25 0 0 582.46 194.16 0 0 431.45c0,50.65 66.26,32.36 194.15,32.36 24.86,0 32.36,-7.51 32.36,-32.36l0 -431.45 194.16 0 0 -582.46 593.25 0 0 -1100.21 291.23 0 0 -399.09 323.59 0 0 -4476.33 -1434.59 0c87.93,-377.45 325.78,-651.38 743.25,-691.34 410.41,-39.27 721.16,182.92 899.87,515.16 93.21,173.29 110.91,380.47 176.6,535.3 50.45,118.9 115.89,243.96 195.53,343.79 14.93,18.72 25.72,25.69 41.71,44.58 97.39,115.08 106.29,116.43 237.38,215.64 234.69,177.65 571.38,266.52 887.63,266.52l0 2933.87 4001.73 0 0 -4713.62 -4001.73 0 0 1553.24c-122.89,0 -326.19,-40.08 -441.09,-76.67 -113.96,-36.28 -261.23,-112.49 -347.94,-180.6 -203.42,-159.78 -336.18,-356.97 -410.56,-646.49 -93.02,-362.17 -238.79,-663.97 -578.1,-867.26 -408.06,-244.49 -924.28,-216.2 -1283.12,101.64 -18.86,16.7 -20.6,14.68 -36.69,28.03 -23.98,19.9 -33.29,40.59 -54.83,63.81 -59.82,64.5 -104.11,130.75 -147.99,207.96 -37.68,66.32 -111.2,273.4 -118.95,366.44z"/>
  <path class="fil1" d="M207.44 2928.64l0 7949.52 10840.26 0c24.86,0 32.36,-7.51 32.36,-32.36l0 -4940.14c0,-24.86 -7.5,-32.36 -32.36,-32.36l-776.61 0c-24.86,0 -32.36,7.5 -32.36,32.36l0 4141.95 -9265.46 0 0 -6256.07 1359.08 0c24.85,0 32.36,-7.51 32.36,-32.36l0 -830.54c0,-24.86 -7.51,-32.36 -32.36,-32.36l-2092.55 0c-24.86,0 -32.36,7.5 -32.36,32.36z"/>
  <path class="fil0" d="M1415.51 9637.74l8402.55 0 0 -1305.15 -4918.57 0c-91.68,0 -365.82,366.73 -442.23,366.73l-355.96 0c-48.25,0 -394.98,-366.73 -442.24,-366.73l-2243.55 0 0 1305.15z"/>
  <polygon class="fil2" points="7840.02,3146.42 11220.28,3146.42 11220.31,1060.53 7841.47,1060.53 "/>
  <polygon class="fil0" points="6172.28,3791.54 7175.41,3791.54 7175.41,2896.28 6172.28,2896.28 "/>
  <path class="fil2" d="M4546.32 5653.78c132.1,0 264.22,-0.18 396.32,0 68.64,0.1 122.61,13.85 164.98,-25.35 35.79,-33.1 66.5,-67.57 101.95,-103.01 40.42,-40.44 370.99,-354.36 396.39,-409.22 -134.8,0 -269.66,0.37 -404.46,-0.02 -157.5,-0.45 -105.85,-22.21 -264.62,136.55 -61.99,62.01 -369.33,353.89 -390.56,401.05z"/>
  <path class="fil2" d="M3467.17 5653.78c132.27,0 264.56,-0.18 396.84,0 170.32,0.24 120.32,18.23 266.92,-128.36l345.21 -344.97c28.41,-27.66 34.6,-28.44 51.19,-64.25 -134.8,0 -269.66,0.37 -404.46,-0.02 -157.51,-0.45 -105.86,-22.21 -264.61,136.55 -63,62.99 -368.04,353.2 -391.09,401.05z"/>
  <path class="fil2" d="M2923.54 5641.36c46.32,-21.45 503.71,-478.84 525.15,-525.16l-525.79 0 0.64 525.16z"/>
  <polygon class="fil2" points="9602.3,4235.85 10033.79,4235.85 10033.81,3899.38 9602.33,3899.38 "/>
  <polygon class="fil2" points="8426.59,4235.85 8858.1,4235.85 8858.1,3899.38 8426.96,3899.38 "/>
  <polygon class="fil2" points="10778.02,4235.85 11209.5,4235.85 11209.52,3899.38 10778.37,3899.38 "/>
  <polygon class="fil2" points="7840.02,4235.85 8269.2,4235.85 8268.96,3899.38 7840.12,3899.38 "/>
  <polygon class="fil2" points="9602.3,3748.43 10033.79,3748.43 10033.81,3414 9602.33,3414 "/>
  <polygon class="fil2" points="10778.02,3748.43 11209.5,3748.43 11209.52,3414 10778.04,3414 "/>
  <polygon class="fil2" points="9015.73,4235.85 9444.59,4235.85 9444.67,3899.38 9015.83,3899.38 "/>
  <polygon class="fil2" points="10191.44,4235.85 10620.28,4235.85 10620.39,3899.38 10191.53,3899.38 "/>
  <polygon class="fil2" points="8426.59,3748.43 8858.07,3748.43 8858.1,3414 8427.97,3414 "/>
  <polygon class="fil2" points="9015.73,3748.43 9444.92,3748.43 9444.67,3414 9015.83,3414 "/>
  <polygon class="fil2" points="10191.44,3748.43 10620.28,3748.43 10620.39,3414 10191.53,3414 "/>
  <polygon class="fil2" points="7840.02,3748.43 8268.87,3748.43 8268.96,3414 7840.12,3414 "/>
  <polygon class="fil2" points="10777.7,4721.23 11210.85,4721.23 11208.86,4388.57 10780.74,4388.58 "/>
  <polygon class="fil2" points="9602.3,5208.69 10033.79,5208.69 10033.81,4876.82 9602.33,4876.82 "/>
  <polygon class="fil2" points="10778.02,5208.69 11209.5,5208.69 11209.52,4876.82 10778.04,4876.82 "/>
  <polygon class="fil2" points="8426.59,5208.69 8858.07,5208.69 8858.1,4876.82 8426.96,4876.82 "/>
  <polygon class="fil2" points="8426.27,4721.23 8859.42,4721.23 8857.45,4388.57 8430.41,4388.58 "/>
  <polygon class="fil2" points="9601.99,4721.23 10033.81,4721.23 10033.16,4388.57 9605.03,4388.58 "/>
  <polygon class="fil2" points="7840.02,4721.23 8268.87,4721.23 8268.96,4388.67 7839.95,4388.67 "/>
  <polygon class="fil2" points="10191.44,4721.23 10620.28,4721.23 10620.39,4388.67 10191.36,4388.67 "/>
  <polygon class="fil2" points="9015.73,4721.23 9444.59,4721.23 9444.67,4388.67 9015.83,4388.67 "/>
  <polygon class="fil2" points="10191.44,5208.69 10620.28,5208.69 10620.39,4876.82 10191.53,4876.82 "/>
  <polygon class="fil2" points="7840.02,5208.69 8268.87,5208.69 8268.96,4876.82 7840.12,4876.82 "/>
  <polygon class="fil2" points="9015.73,5208.69 9444.59,5208.69 9444.67,4876.82 9016.16,4876.82 "/>
  <path class="fil0" d="M4651.41 8062.93c0,122.38 124.04,125.41 169.76,83.47 68.6,-62.91 22.17,-180.55 -61.9,-180.55 -59.24,0 -107.86,37.43 -107.86,97.08z"/>
  <path class="fil0" d="M3162.89 7728.55c147.28,0 113.08,-140.66 83.69,-169.97 -143.67,-143.25 -265.16,169.97 -83.69,169.97z"/>
  <path class="fil0" d="M3691.42 8062.93c0,158.39 204.95,122.2 204.95,10.79 0,-137.28 -204.95,-142.19 -204.95,-10.79z"/>
  <path class="fil0" d="M5632.96 7491.26c0,152.02 204.94,122.62 204.94,10.78 0,-149.11 -204.94,-135.91 -204.94,-10.78z"/>
  <path class="fil0" d="M3389.4 7825.63c0,140.08 204.95,148.81 204.95,0 0,-136.08 -204.95,-113.02 -204.95,0z"/>
  <path class="fil0" d="M2720.66 7469.68c0,192.01 186.16,139.09 201.11,39.53 21.89,-145.91 -201.11,-142.75 -201.11,-39.53z"/>
  <path class="fil0" d="M5028.93 7933.49c177.3,0 135.69,-204.94 21.57,-204.94 -140.53,0 -123.09,204.94 -21.57,204.94z"/>
  <path class="fil0" d="M5277.01 7631.47c0,129.16 204.94,129.16 204.94,0 0,-136.75 -204.94,-133.04 -204.94,0z"/>
 </g>
</svg>
