<?xml version="1.0" encoding="UTF-8"?>
<!DOCTYPE svg PUBLIC "-//W3C//DTD SVG 1.1//EN" "http://www.w3.org/Graphics/SVG/1.1/DTD/svg11.dtd">
<!-- Creator: CorelDRAW 2020 (64-Bit) -->
<svg xmlns="http://www.w3.org/2000/svg" xml:space="preserve" width="11811px" height="11811px" version="1.1" style="shape-rendering:geometricPrecision; text-rendering:geometricPrecision; image-rendering:optimizeQuality; fill-rule:evenodd; clip-rule:evenodd"
viewBox="0 0 11811 11811"
 xmlns:xlink="http://www.w3.org/1999/xlink"
 xmlns:xodm="http://www.corel.com/coreldraw/odm/2003">
 <defs>
  <style type="text/css">
   <![CDATA[
    .fil0 {fill:#999999}
   ]]>
  </style>
 </defs>
 <g id="Слой_x0020_1">
  <metadata id="CorelCorpID_0Corel-Layer"/>
  <path class="fil0" d="M5845.36 2747.09c-20.89,-13.22 -10.1,1.89 -16.55,-24.92l-0.01 -1987.19 -1274.8 -0.01 -0.92 1383.07 341.26 -0.13 0.67 368.12c-156.39,-0.03 -106.97,19.9 -216.42,-117.39 -288.86,-362.37 -591.55,-764.55 -877.6,-1110.98 -35.82,-43.37 -65.1,-79.62 -97.15,-122.79 -34,-45.79 -21.79,-128.44 -21.79,-199.82 0,-296.51 0.99,-593.19 -0.07,-889.68l-291.15 -2.26c0.11,137.84 -8.89,1109.87 1.88,1156 6.93,29.69 213.15,279.77 250.29,326.31l888.48 1128.06c42.56,54.08 21.62,189.47 21.62,270.29l-0.02 3748.31c-0.34,152.18 -12.67,89.03 93.33,201.07l570.31 596.25 -96.78 191.75 726.55 744 472.37 -463.37c56.82,-56.87 431.95,-418.17 464.98,-476.83 -213,-145.79 -481.71,-632.86 -572.27,-882.95 -242.7,-670.24 -54.28,-1338.67 400.46,-1839.01l132.43 -142.27c36.67,-36.69 69.47,-45.28 70.29,-109.11l4.24 -1091.28c0.84,-112.59 -6.58,-253.41 3.23,-362.29l238.64 -2.15 -0.01 -2992.63 -291.19 -0.11 0.09 2701.54 -924.39 2.4z"/>
  <path class="fil0" d="M2147.55 5461.35l431.48 500.66c34.47,36.4 70.68,86.81 105.28,124.1l549.62 632.19c35.58,42.11 67.3,82.91 105.78,123.49 35.83,37.8 75,92.16 109.76,128.73 39.3,41.34 69.75,82.6 106.46,122.72l1419.44 1641.35c66.07,69.02 154.01,190.76 229.11,247.6 418.92,317.03 1006.22,321.97 1415.21,12.04 106.83,-80.96 132.7,-136.77 226.53,-241.2l868.11 -1010.38c35.59,-45.35 74.36,-82.52 110.05,-128.19 85.14,-108.9 237.84,-269.44 326.27,-379.26l541.38 -631.84c189.33,-203.46 462.66,-557.63 651.52,-760.03 43.69,-46.84 315.2,-362.9 328.43,-393.38 -53.2,-20.81 -234.45,-153.12 -292.71,-193.81 -96.56,-67.43 -191.25,-135.57 -288.52,-197.77 -38.54,19.85 -335.66,379.53 -385.63,440.12l-764.76 893.95c-33.2,35.87 -62.94,71.52 -92.66,109.03 -31.94,40.32 -65.85,72.6 -97.73,112.8l-1527.78 1790.11c-115.67,128.07 -445.02,159.02 -604.31,-9.77 -102.43,-108.55 -272.71,-319.7 -381.29,-443.8 -35.87,-40.99 -65.47,-70.89 -98.2,-112.37 -16.77,-21.25 -31.12,-32.75 -47.44,-53.14 -21.09,-26.35 -23.62,-30.39 -50.41,-59.64l-958.74 -1112.54c-26.75,-28.19 -64.47,-75.26 -92.26,-109.62l-1061.35 -1229.43c-31.89,-36.45 -64.1,-79.05 -97.19,-113.8 -29.64,-31.14 -69.77,-88 -100.47,-111.1l-582.98 412.18z"/>
  <path class="fil0" d="M4844.77 1828.44l337.19 0.06 4.3 947.17 -341.43 0.49 0 3675.97c0,213.62 -22.31,185.4 64.84,276.95l661.79 674.6 -100.37 209.85 284.99 285.3c28.65,29.98 62.47,77.74 102.05,94.99 27.22,-39.52 305,-299.49 385.39,-393.19 32.84,-38.29 94.16,-98.46 133.58,-131.23l-142.67 -204.9c-50.67,-74.51 -90.12,-139.06 -135.37,-221.68 -510.28,-931.54 -317.97,-1862.39 390.94,-2595.86 46.03,-47.64 33.5,-52.95 33.44,-139.32l5.71 -1265.48 -987.49 -7.28 0.06 -2013.7 -694.78 -1.93 -2.17 809.19z"/>
  <path class="fil0" d="M2377.93 10406.04c-51.95,41.86 -240.09,237.81 -316.96,295.22l-0.05 1051 291.29 -2.86 -0.14 -907.43c11.84,-23.52 86.74,-94.63 108.71,-113.83 43.73,-38.22 69.6,-58.66 113.42,-106.53 63.22,-69.07 162.1,-140.21 225.91,-212.4 -18.13,-17.35 -29.68,-33.66 -49.62,-54.42l-296.6 -280.92c-68.34,-62.61 -101.82,-73.33 -101.82,-130.03l2.8 -2774.04c125.82,0.09 250.74,0.18 375.66,0.1 170.28,-0.11 104.44,-17.3 238,134.8l1026.16 1237.53c216.58,246.82 461.42,561.55 681.76,821.14l597.72 722.25c39.31,47.84 62.8,98.3 114.09,98.28l1081.42 0.05c33.56,-6.31 147.31,-162.74 178.55,-198.96l510.84 -616.53c59.97,-71.39 112.56,-132.15 170.56,-205.07 213.54,-268.46 463.46,-556.56 684.94,-827.48l852.14 -1026.46c30.73,-35.41 54.79,-65.6 82.6,-100.9 43.76,-55.55 64.68,-38.77 150.6,-38.65 127.98,0.18 255.99,0.14 383.97,-0.04 12.46,95.2 3.71,2465.8 3.67,2773.98 0,50.69 -10.09,49.79 -37.76,74.85l-291.53 276.84c-38.96,36.82 -72.42,78.26 -109.6,113.52 34.1,39.33 75.69,66.82 112.08,106.47 76.01,82.83 175.76,160.15 223.38,216.34 60.3,71.14 98.75,68.8 103.86,127.74l-0.5 888.86 291.21 3.65c0,-275.89 0.04,-551.77 0.04,-827.66 0,-49.06 6.1,-159.78 -0.43,-201.64 -6.55,-41.93 -70.45,-83.36 -100.42,-110.62l-210.89 -211.61c47.88,-39.1 311.72,-277.06 311.72,-328.43l0.02 -3191.65 -917.09 0.07c-33.24,-0.01 -36.53,22.37 -51.98,42.11 -14.87,18.99 -27.22,32.24 -41.43,50.19 -29.43,37.15 -54.95,63.79 -83.22,99.95l-336.45 405.89c-58.01,66.55 -112.58,139.02 -170.56,205.24 -57.3,65.44 -112.54,132.55 -165.86,200.78 -199.17,254.83 -462.46,547.57 -672.93,811.8 -57.82,72.59 -114.71,132.68 -170.83,204.72 -54.51,69.97 -106.85,130.18 -166.17,200.33l-631.37 761.86c-24.7,30.73 -15.98,30.23 -65.37,31.17l-743.5 -0.37c-102.66,1.02 -96.73,-40.98 -205.32,-166.12 -217.22,-250.33 -453.7,-551.41 -673.23,-811.41l-1682.77 -2036.04 -939.73 -0.12 -0.03 3118.3c-0.18,35.62 -7.15,82.54 10.77,109.11 0.8,1.18 51.11,55.35 57.32,61.52l248.95 236.56z"/>
  <path class="fil0" d="M2576.59 5517.11c34.98,38.92 59.81,68.7 98.41,110.62 32.31,35.1 66.13,80.72 97.35,113.66l293.21 339.17c24.46,25.77 26.28,30.32 46.06,54.87l540.23 623.53c34.46,36.28 68.26,75.37 97.6,113.22 63.43,81.83 222.02,247.23 293.19,339.19 30.78,39.77 65.32,71.55 98.95,111.44 128.69,152.71 385.01,435.28 487.47,566.87l586.55 678.18c107.55,128.38 175.58,214.84 342.28,290 104.05,46.92 225.76,73.57 352.46,74.8 241.14,2.36 494.84,-100.05 602.64,-237.77l194.64 -226.88c34.36,-36.35 63.76,-76.5 96.74,-114.25 34.86,-39.89 66.5,-72.44 97.91,-112.71l487.53 -566.14c113.75,-142.03 272.38,-313.53 389.07,-454.13l193.73 -228.13c37.63,-41.52 64.93,-72.61 97.5,-113.3l195.64 -225.59c32.06,-35.42 65.62,-81.35 96.67,-114.39l584.41 -680.13c45.81,-57.42 277.5,-314.22 292.58,-351.95 -38.81,-17.76 -66.18,-44.79 -102.83,-62.3l-470.95 545.19c-33.47,39.06 -58.92,70.38 -97.5,113.26 -116.29,129.28 -261.96,318.33 -379.24,445.66 -63.37,68.79 -128.67,149.03 -189.62,223.05l-380.08 444.73c-128.34,148.85 -249.55,292.3 -375.89,439.76l-380.28 444.53c-134,148.88 -251.32,297.76 -379.32,445.57 -147.72,170.61 -322.86,258.82 -573.09,254.67 -123.14,-2.04 -232.29,-29.46 -328.34,-77.68 -149.18,-74.89 -216.71,-168.82 -318.83,-295.72 -156.02,-193.9 -395.6,-453.96 -572.52,-664.7 -103.72,-123.55 -292.03,-327.22 -382.68,-441.82l-1051.5 -1221.56c-24.15,-25.66 -26.37,-30.51 -45.94,-54.97l-525.48 -607.6c-25.45,11.6 -92.74,59.14 -108.73,79.75z"/>
  <path class="fil0" d="M4553.1 11061.92l-0.01 690.22 291.8 -0.59 -0.06 -543c5.76,-31.36 114.33,-100.4 140.2,-119.26l374.47 -285.22c30.88,-23.91 49.06,-48.98 92.91,-48.98l943.96 -0.02c52.48,0 398.68,282.34 461.77,330.79 39.06,29.98 139.14,96.09 144.1,122.69l0.02 542.16 291.17 0.36 0.06 -701.3 -592.64 -448.21c-44.36,-33.91 -158.78,-136.58 -212.84,-136.58l-1135.26 0c-53.85,0 -361.28,255.44 -408.44,290.28 -48.26,35.65 -376.26,275.58 -391.21,306.66z"/>
  <path class="fil0" d="M5845.36 2747.09c-31.85,-102.03 12.48,-1929.79 -13.1,-2017.76 -18.7,-3.12 -1199.44,-14.28 -1258.65,-2.5 -18.69,3.72 -8.65,1.41 -19.61,8.14l1274.8 0.01 0.01 1987.19c6.45,26.81 -4.34,11.7 16.55,24.92z"/>
 </g>
</svg>
