<?xml version="1.0" encoding="UTF-8"?>
<!DOCTYPE svg PUBLIC "-//W3C//DTD SVG 1.1//EN" "http://www.w3.org/Graphics/SVG/1.1/DTD/svg11.dtd">
<!-- Creator: CorelDRAW 2020 (64-Bit) -->
<svg xmlns="http://www.w3.org/2000/svg" xml:space="preserve" width="11811px" height="11811px" version="1.1" style="shape-rendering:geometricPrecision; text-rendering:geometricPrecision; image-rendering:optimizeQuality; fill-rule:evenodd; clip-rule:evenodd"
viewBox="0 0 11811 11811"
 xmlns:xlink="http://www.w3.org/1999/xlink"
 xmlns:xodm="http://www.corel.com/coreldraw/odm/2003">
 <defs>
  <style type="text/css">
   <![CDATA[
    .fil1 {fill:black}
    .fil2 {fill:white}
    .fil0 {fill:#C1C0C0;fill-rule:nonzero}
   ]]>
  </style>
 </defs>
 <g id="Слой_x0020_1">
  <metadata id="CorelCorpID_0Corel-Layer"/>
  <path class="fil0" d="M729.71 9756.21c1295.51,34.98 2968.32,8.07 4321.23,1.49 481.91,-2.35 441.8,325.5 820.98,613.39 115.92,-90.86 287.86,-316.22 397.08,-434.51 213.32,-231.02 251.16,-178.47 630.09,-178.43 518.87,0.06 1160.17,33.42 1664.14,-5.1 -76.8,-121.22 -148.16,-89.27 -152.36,-290.37 -5.52,-264.46 78.21,-158.44 193.13,-100.03 57.14,-1879.59 -225.83,-1645.41 631.88,-1645.41l1720.73 -0.29c216.03,-1.54 395.35,-11.74 313.99,238.7 -308.82,119.19 -1923.02,-54.64 -2402.5,35.69l-4.26 1384.23c47.6,-18.9 74.59,-52.5 77.43,-54.18 170.23,-101.66 120.91,206.87 112.8,241.63 -21.55,92.34 -75.37,95.37 -141.92,195.13l2090.7 -0.17c78.65,-235.69 302.44,-563.26 471.22,-1086.22 128.65,-398.61 221.96,-828.07 265.96,-1271.21 92.59,-932.45 -52.02,-1914.92 -364.07,-2696.88 -352.27,-882.76 -631.13,-1247.09 -1186.26,-1894.61 -217.8,-254.04 -520.59,-512.53 -812.42,-728.84 -229.7,-170.26 -667.66,-467.58 -963.81,-574.16 -15.57,-206.41 28.39,-733.7 -25,-883.48l-94.7 -3.95c31.58,23.71 -18.67,24.28 92.62,24.28 0,273.37 47.85,1472.31 -31.94,1622.2 -207.28,389.4 -1088.04,68.91 -1429.69,211.33 -51.06,89.16 -51.06,1019.38 0,1108.54 198.13,82.59 538.67,-47.04 745.4,73.3 204.66,119.15 166.73,361.83 166.7,643.54 -0.11,948.76 111.79,762.91 -331.35,1325.3 -289.52,367.41 -1050.95,1348.16 -1369.83,1711.17 -52.31,59.55 -75.27,48.25 -106.71,122.07 0,433.38 52.68,2091.99 -21.25,2372.52 -78.85,40.09 -139.45,69.06 -222.89,-25.67 -57.45,-155.92 -18.59,-1982.75 -18.59,-2321.18 -17.83,-78.82 -61.21,-20.91 -206.73,-201.85l-1298.21 -1628.79c-80.36,-102.67 -311.84,-352.09 -342.62,-476.78 -33.32,-134.97 -11.69,-651.67 -11.7,-825.42 0,-286 -48.97,-559.1 149.08,-686.62 212.45,-136.79 566.89,6.6 763.02,-83.32 51.64,-93.55 51.64,-1011.53 0,-1105.08 -117.93,-54.07 -627.14,-22.33 -796.05,-22.27 -846.9,0.29 -672.4,-91.86 -672.4,-1812.99l276.66 0c-85.6,-64.53 -204.71,-44.63 -301.27,-16.87l-13.07 873.67c-113.41,78.93 -360.11,193.57 -488.8,267.61 -407.01,234.21 -559.33,393.7 -888,653.1l-393.46 376.55c-1586.4,1656.6 -2013.61,4308.65 -1073.05,6419.66 79.04,177.39 208.18,379.12 260.07,539.58z"/>
  <path class="fil1" d="M3627.29 642.91l-276.66 0c0,1721.13 -174.5,1813.28 672.4,1812.99 168.91,-0.06 678.12,-31.8 796.05,22.27 51.64,93.55 51.64,1011.53 0,1105.08 -196.13,89.92 -550.57,-53.47 -763.02,83.32 -198.05,127.52 -149.08,400.62 -149.08,686.62 0.01,173.75 -21.62,690.45 11.7,825.42 30.78,124.69 262.26,374.11 342.62,476.78l1298.21 1628.79c145.52,180.94 188.9,123.03 206.73,201.85 0,338.43 -38.86,2165.26 18.59,2321.18 83.44,94.73 144.04,65.76 222.89,25.67 73.93,-280.53 21.25,-1939.14 21.25,-2372.52 31.44,-73.82 54.4,-62.52 106.71,-122.07 318.88,-363.01 1080.31,-1343.76 1369.83,-1711.17 443.14,-562.39 331.24,-376.54 331.35,-1325.3 0.03,-281.71 37.96,-524.39 -166.7,-643.54 -206.73,-120.34 -547.27,9.29 -745.39,-73.3 -51.07,-89.16 -51.07,-1019.38 0,-1108.54 341.64,-142.42 1222.4,178.07 1429.68,-211.33 79.79,-149.89 31.94,-1348.83 31.94,-1622.2 -111.29,0 -61.04,-0.57 -92.62,-24.28 -223.46,43.57 -475.33,21.07 -711.2,21.07l-0.54 1540.74 -1966.89 5.85c-379.09,0 -1721.8,46.51 -1976.96,-16.17 -40.22,-119.19 -36.25,-1335.81 -10.89,-1527.21z"/>
  <path class="fil1" d="M729.71 9756.21c-231.23,-2.7 -454.37,-18.84 -438.79,246.6 14.79,252.11 298.62,210.09 522.22,209.93l4291.95 -0.01 322.45 362.63c97.26,120.55 201.66,279.74 444.4,279.44 302.44,-0.37 527.45,-391.84 766.81,-642.07l1961.58 0c-118.22,139.97 -269.9,208.18 -158.53,505.7 111.49,-14.16 223.68,-165.1 273.45,-229.91 108.26,60.94 156.29,161.39 224,198.12 86.66,46.99 61.21,19.07 88.23,4.54 160.67,-202.51 -108.78,-399.81 -152.41,-477.48 563.8,-7.43 1131.87,-0.97 1696.13,-0.97 191.73,0 674.62,41.64 790.81,-60.69 93.47,-82.31 92.23,-252.9 10.08,-334.78 -77.79,-77.52 -237.03,-63.62 -369.24,-59.28l-2090.7 0.17c66.55,-99.76 120.37,-102.79 141.92,-195.13 8.11,-34.76 57.43,-343.29 -112.8,-241.63 -2.84,1.68 -29.83,35.28 -77.43,54.18l4.26 -1384.23c479.48,-90.33 2093.68,83.5 2402.5,-35.69 81.36,-250.44 -97.96,-240.24 -313.99,-238.7l-1720.73 0.29c-857.71,0 -574.74,-234.18 -631.88,1645.41 -114.92,-58.41 -198.65,-164.43 -193.13,100.03 4.2,201.1 75.56,169.15 152.36,290.37 -503.97,38.52 -1145.27,5.16 -1664.14,5.1 -378.93,-0.04 -416.77,-52.59 -630.09,178.43 -109.22,118.29 -281.16,343.65 -397.08,434.51 -379.18,-287.89 -339.07,-615.74 -820.98,-613.39 -1352.91,6.58 -3025.72,33.49 -4321.23,-1.49z"/>
  <path class="fil2" d="M5897.6 7184.6c149.9,-78.11 320.73,-502.55 420.96,-690.73 139.79,-262.49 708,-1270.54 710.03,-1497.37 2.53,-281.49 28.99,-872.63 -10.96,-1121.36 -656.27,35.88 -1696.08,2 -2429.66,-0.13 -512.74,-1.48 -427.38,-168.82 -422.14,1069.89 0.99,234.5 179.57,384.58 364.88,621.27l1096.98 1367.73c146.44,184.05 138.48,238.95 269.91,250.7z"/>
  <path class="fil2" d="M5123.09 3603.78l1050.56 0c11.8,-143.51 7.04,-289.09 7.61,-433.06 1.56,-391.19 -208.37,-271.39 -1045.88,-271.39l-12.29 704.45z"/>
  <polygon class="fil1" points="5429.94,5641.85 5682.49,5637.14 5682.31,4856.91 6093.4,4856.91 6100.35,4619.83 5441.8,4619.83 "/>
  <path class="fil1" d="M6745.79 9540.36c9.02,4.73 1144.13,212.22 932.21,-211.62 -76.76,-153.52 -350.23,-45.73 -503.62,-2.04 -85.84,24.45 -161.69,46.08 -238.57,70.19 -14.24,4.46 -114.58,34.97 -117.67,36.38 -117.19,53.1 -74.54,-9.16 -72.35,107.09z"/>
  <path class="fil1" d="M5106.03 9343.61c52.95,-114.39 -147.35,-329.83 -244.28,-461.8 -64.96,-88.43 -255.04,-418.76 -431.95,-217.06 -151.46,172.67 138.6,338.67 237.74,410.96 87.37,63.69 351.89,280.85 438.49,267.9z"/>
  <path class="fil1" d="M6378.11 8795.67c0,157.45 -24.29,333.88 33.08,421.84 121.1,-44.57 149.9,-225.88 189.52,-335.1 43.06,-118.73 117.18,-289.43 131.3,-407.16 23.61,-196.96 -177.16,-269.18 -285.4,-158.1 -87.63,89.95 -68.5,338.94 -68.5,478.52z"/>
  <path class="fil1" d="M5358.34 9216.87c66.29,-98.93 34.53,-572 21.3,-698.01 -16.24,-154.71 -17.81,-133.14 -89.65,-238.01 -430.88,-51.76 -219.72,339.34 -87.93,696.74 36.23,98.24 48.69,203.01 156.28,239.28z"/>
  <path class="fil1" d="M6662.13 9344.98c24.52,3.47 915.88,-451.76 664.12,-693.87 -176.12,-169.38 -357.09,144.64 -419.84,228.93 -40.02,53.78 -249.67,329.9 -256.81,385.55l12.53 79.39z"/>
  <path class="fil1" d="M3926.51 8840.96c-222.23,86.37 -78.14,354.66 106.13,275.54 177.54,-76.24 60.36,-340.25 -106.13,-275.54z"/>
  <path class="fil1" d="M7927.49 9083.14c64.83,-251.93 -143.62,-319.13 -245.16,-197.16 -111.82,134.33 15.67,313.8 245.16,197.16z"/>
 </g>
</svg>
