<?xml version="1.0" encoding="UTF-8"?>
<!DOCTYPE svg PUBLIC "-//W3C//DTD SVG 1.1//EN" "http://www.w3.org/Graphics/SVG/1.1/DTD/svg11.dtd">
<!-- Creator: CorelDRAW 2020 (64-Bit) -->
<svg xmlns="http://www.w3.org/2000/svg" xml:space="preserve" width="11811px" height="11811px" version="1.1" style="shape-rendering:geometricPrecision; text-rendering:geometricPrecision; image-rendering:optimizeQuality; fill-rule:evenodd; clip-rule:evenodd"
viewBox="0 0 11811 11811"
 xmlns:xlink="http://www.w3.org/1999/xlink"
 xmlns:xodm="http://www.corel.com/coreldraw/odm/2003">
 <defs>
  <style type="text/css">
   <![CDATA[
    .fil1 {fill:black}
    .fil2 {fill:white}
    .fil0 {fill:#B2B3B3;fill-rule:nonzero}
   ]]>
  </style>
 </defs>
 <g id="Слой_x0020_1">
  <metadata id="CorelCorpID_0Corel-Layer"/>
  <g id="_2564358091056">
   <path class="fil0" d="M978.13 9450.08c1251.97,33.8 2868.55,7.8 4175.99,1.44 465.71,-2.27 426.95,314.56 793.38,592.77 112.03,-87.81 278.19,-305.59 383.74,-419.91 206.15,-223.25 242.72,-172.47 608.91,-172.43 501.43,0.06 1121.18,32.3 1608.21,-4.93 -74.22,-117.14 -143.18,-86.27 -147.24,-280.61 -5.34,-255.57 75.58,-153.11 186.64,-96.67 55.21,-1816.41 -218.24,-1590.1 610.64,-1590.1l1662.89 -0.28c208.77,-1.49 382.06,-11.35 303.44,230.68 -298.44,115.18 -1858.39,-52.81 -2321.75,34.49l-4.12 1337.7c46,-18.26 72.08,-50.74 74.83,-52.36 164.51,-98.24 116.84,199.92 109.01,233.51 -20.83,89.24 -72.84,92.17 -137.15,188.57l2020.43 -0.16c76,-227.77 292.27,-544.33 455.38,-1049.71 124.32,-385.21 214.5,-800.24 257.02,-1228.49 89.48,-901.1 -50.27,-1850.55 -351.84,-2606.23 -340.42,-853.09 -609.91,-1205.17 -1146.38,-1830.93 -210.48,-245.5 -503.09,-495.3 -785.12,-704.34 -221.98,-164.54 -645.21,-451.86 -931.41,-554.86 -15.05,-199.47 27.44,-709.04 -24.16,-853.79l-91.52 -3.81c30.52,22.91 -18.04,23.46 89.51,23.46 0,264.18 46.24,1422.82 -30.87,1567.68 -200.31,376.31 -1051.47,66.59 -1381.63,204.22 -49.35,86.17 -49.35,985.12 0,1071.28 191.47,79.82 520.56,-45.46 720.34,70.84 197.78,115.14 161.13,349.67 161.1,621.91 -0.11,916.87 108.03,737.27 -320.21,1280.75 -279.79,355.06 -1015.63,1302.85 -1323.79,1653.66 -50.55,57.55 -72.74,46.63 -103.12,117.96 0,418.82 50.91,2021.68 -20.54,2292.78 -76.2,38.74 -134.76,66.74 -215.4,-24.81 -55.52,-150.68 -17.96,-1916.1 -17.96,-2243.16 -17.23,-76.17 -59.16,-20.21 -199.78,-195.06l-1254.58 -1574.05c-77.66,-99.22 -301.36,-340.25 -331.1,-460.75 -32.2,-130.43 -11.3,-629.77 -11.31,-797.68 0,-276.39 -47.32,-540.31 144.07,-663.54 205.31,-132.19 547.83,6.38 737.37,-80.52 49.91,-90.41 49.91,-977.53 0,-1067.94 -113.96,-52.25 -606.06,-21.57 -769.29,-21.52 -818.43,0.28 -649.8,-88.77 -649.8,-1752.05l267.36 0c-82.72,-62.36 -197.83,-43.13 -291.14,-16.3l-12.63 844.3c-109.6,76.28 -348.01,187.07 -472.37,258.62 -393.33,226.34 -540.53,380.46 -858.16,631.15l-380.23 363.89c-1533.08,1600.92 -1945.93,4163.83 -1036.98,6203.88 76.38,171.43 201.18,366.38 251.32,521.45l0 0z"/>
   <path class="fil1" d="M3778.32 643.09l-267.36 0c0,1663.28 -168.63,1752.33 649.8,1752.05 163.23,-0.06 655.33,-30.73 769.29,21.52 49.91,90.41 49.91,977.53 0,1067.94 -189.54,86.9 -532.06,-51.67 -737.37,80.52 -191.39,123.23 -144.07,387.15 -144.07,663.54 0.01,167.91 -20.89,667.25 11.31,797.68 29.74,120.5 253.44,361.53 331.1,460.75l1254.58 1574.05c140.62,174.85 182.55,118.89 199.78,195.06 0,327.06 -37.56,2092.48 17.96,2243.16 80.64,91.55 139.2,63.55 215.4,24.81 71.44,-271.1 20.54,-1873.96 20.54,-2292.78 30.38,-71.33 52.57,-60.41 103.12,-117.96 308.16,-350.81 1044,-1298.6 1323.79,-1653.66 428.24,-543.48 320.1,-363.88 320.21,-1280.75 0.03,-272.24 36.68,-506.77 -161.1,-621.91 -199.78,-116.3 -528.87,8.98 -720.33,-70.84 -49.36,-86.16 -49.36,-985.11 0,-1071.28 330.15,-137.63 1181.31,172.09 1381.62,-204.22 77.11,-144.86 30.87,-1303.5 30.87,-1567.68 -107.55,0 -58.99,-0.55 -89.51,-23.46 -215.95,42.1 -459.35,20.36 -687.29,20.36l-0.52 1488.95 -1900.78 5.65c-366.35,0 -1663.93,44.95 -1910.52,-15.62 -38.86,-115.19 -35.03,-1290.91 -10.52,-1475.88l0 0z"/>
   <path class="fil1" d="M978.13 9450.08c-223.45,-2.61 -439.09,-18.21 -424.04,238.31 14.29,243.63 288.58,203.03 504.67,202.87l4147.69 -0.01 311.61 350.44c93.99,116.5 194.88,270.34 429.46,270.05 292.28,-0.36 509.73,-378.67 741.04,-620.49l1895.65 0c-114.25,135.27 -260.83,201.19 -153.2,488.71 107.74,-13.69 216.16,-159.55 264.26,-222.19 104.62,58.89 151.03,155.97 216.47,191.46 83.74,45.41 59.15,18.43 85.26,4.39 155.27,-195.7 -105.12,-386.37 -147.29,-461.43 544.85,-7.18 1093.83,-0.94 1639.12,-0.94 185.29,0 651.95,40.24 764.23,-58.65 90.33,-79.54 89.13,-244.4 9.75,-323.52 -75.18,-74.92 -229.07,-61.49 -356.83,-57.29l-2020.43 0.16c64.31,-96.4 116.32,-99.33 137.15,-188.57 7.83,-33.59 55.5,-331.75 -109.01,-233.51 -2.75,1.63 -28.83,34.1 -74.83,52.36l4.12 -1337.7c463.36,-87.3 2023.31,80.69 2321.75,-34.49 78.62,-242.03 -94.67,-232.17 -303.44,-230.68l-1662.89 0.28c-828.88,0 -555.43,-226.31 -610.65,1590.11 -111.05,-56.45 -191.97,-158.91 -186.63,96.66 4.06,194.34 73.02,163.47 147.24,280.61 -487.04,37.23 -1106.78,4.99 -1608.21,4.93 -366.19,-0.04 -402.76,-50.82 -608.91,172.44 -105.55,114.31 -271.71,332.1 -383.74,419.9 -366.43,-278.21 -327.67,-595.04 -793.38,-592.77 -1307.44,6.36 -2924.02,32.36 -4175.99,-1.44l0 0z"/>
   <path class="fil2" d="M5972.32 6964.9c144.86,-75.48 309.95,-485.66 406.81,-667.51 135.09,-253.67 684.21,-1227.83 686.17,-1447.04 2.44,-272.03 28.01,-843.3 -10.59,-1083.67 -634.22,34.67 -1639.08,1.93 -2348,-0.13 -495.51,-1.43 -413.01,-163.14 -407.95,1033.93 0.96,226.62 173.53,371.66 352.62,600.39l1060.1 1321.76c141.52,177.86 133.83,230.92 260.84,242.27l0 0z"/>
   <path class="fil2" d="M5223.84 3504.44l1015.25 0c11.41,-138.69 6.81,-279.37 7.36,-418.5 1.51,-378.05 -201.37,-262.27 -1010.73,-262.27l-11.88 680.77 0 0z"/>
   <polygon class="fil1" points="5520.38,5474.01 5764.44,5469.46 5764.27,4715.45 6161.54,4715.45 6168.26,4486.34 5531.84,4486.34 "/>
   <path class="fil1" d="M6792 9241.48c8.72,4.57 1105.68,205.09 900.88,-204.5 -74.18,-148.37 -338.46,-44.2 -486.69,-1.98 -82.96,23.63 -156.26,44.53 -230.55,67.83 -13.77,4.31 -110.73,33.8 -113.72,35.16 -113.25,51.32 -72.03,-8.85 -69.92,103.49l0 0z"/>
   <path class="fil1" d="M5207.36 9051.35c51.17,-110.55 -142.4,-318.75 -236.07,-446.28 -62.78,-85.46 -246.47,-404.69 -417.43,-209.77 -146.37,166.87 133.94,327.29 229.75,397.15 84.43,61.55 340.06,271.41 423.75,258.9l0 0z"/>
   <path class="fil1" d="M6436.68 8521.82c0,152.16 -23.47,322.66 31.97,407.66 117.03,-43.07 144.86,-218.28 183.15,-323.83 41.61,-114.74 113.24,-279.71 126.89,-393.48 22.81,-190.34 -171.21,-260.13 -275.81,-152.78 -84.69,86.92 -66.2,327.54 -66.2,462.43l0 0z"/>
   <path class="fil1" d="M5451.19 8928.87c64.06,-95.61 33.37,-552.78 20.58,-674.55 -15.69,-149.51 -17.21,-128.67 -86.64,-230.01 -416.39,-50.02 -212.33,327.93 -84.97,673.32 35.01,94.94 47.05,196.18 151.03,231.24z"/>
   <path class="fil1" d="M6711.16 9052.67c23.69,3.35 885.09,-436.58 641.79,-670.55 -170.2,-163.68 -345.08,139.78 -405.73,221.24 -38.67,51.97 -241.27,318.81 -248.17,372.59l12.11 76.72 0 0z"/>
   <path class="fil1" d="M4067.48 8565.59c-214.76,83.47 -75.51,342.74 102.57,266.28 171.57,-73.68 58.33,-328.81 -102.57,-266.28z"/>
   <path class="fil1" d="M7933.98 8799.63c62.66,-243.46 -138.79,-308.4 -236.92,-190.53 -108.06,129.81 15.15,303.25 236.92,190.53z"/>
  </g>
 </g>
</svg>
