<?xml version="1.0" encoding="UTF-8"?>
<!DOCTYPE svg PUBLIC "-//W3C//DTD SVG 1.1//EN" "http://www.w3.org/Graphics/SVG/1.1/DTD/svg11.dtd">
<!-- Creator: CorelDRAW 2020 (64-Bit) -->
<svg xmlns="http://www.w3.org/2000/svg" xml:space="preserve" width="11811px" height="11811px" version="1.1" style="shape-rendering:geometricPrecision; text-rendering:geometricPrecision; image-rendering:optimizeQuality; fill-rule:evenodd; clip-rule:evenodd"
viewBox="0 0 11811 11811"
 xmlns:xlink="http://www.w3.org/1999/xlink"
 xmlns:xodm="http://www.corel.com/coreldraw/odm/2003">
 <defs>
  <style type="text/css">
   <![CDATA[
    .fil0 {fill:#999999}
    .fil2 {fill:#FBB33C}
    .fil1 {fill:#999999;fill-rule:nonzero}
   ]]>
  </style>
 </defs>
 <g id="Слой_x0020_1">
  <metadata id="CorelCorpID_0Corel-Layer"/>
  <path class="fil0" d="M5198.15 2705.76l3883.91 10.6 12.2 -2657.09c-649.18,-6.19 -1298.16,-0.79 -1944.84,-0.79 -362.98,0 -1702.52,-46.58 -1954.76,17.54l3.49 2629.74z"/>
  <path class="fil0" d="M5211.51 2807.65c33.02,99.52 74.85,148.84 74.85,265.22l-3.49 965.74 -1395.73 6.36c-32.3,-118.91 -26.18,-755.1 -20.2,-944.69 4.68,-147.34 41.52,-177.42 76.08,-296.12l-1538.13 3.97c-111.21,21.9 -217.06,126.22 -220.65,291.43 -27.17,1251.82 -73.11,1121.05 913.89,1121.05l6195.02 1.68c441.17,-2.91 332.35,-422.76 332.35,-657.49 -0.04,-999 161.28,-760.26 -2331.41,-760.26 -682.91,0 -1404.55,-22.39 -2082.58,3.11z"/>
  <polygon class="fil1" points="6127.08,9179.36 10775.08,9180.83 10776.14,7763.87 6135.59,7762.61 "/>
  <polygon class="fil0" points="1035.44,9178.82 5680.03,9180.83 5683.68,7762.74 1042.75,7762.64 "/>
  <path class="fil0" d="M5760.41 7581.94c107.15,6.46 485.37,18.7 571.05,-3.42 60.29,-15.58 257.09,-199.5 323.88,-254.01 351.69,-287.24 903.57,-817.37 1265.48,-1106.97 530.07,-424.18 462.84,-364.13 464.96,-756.09l-3453.51 -0.34c2.16,528.23 87.53,530.55 353.71,1124.5 84.87,189.38 378.7,879.37 474.43,996.33z"/>
  <polygon class="fil0" points="3735.52,5368.32 8076.33,5372.32 8074.83,4311.73 3737.33,4309.17 "/>
  <polygon class="fil0" points="2717.28,2714.1 3952.69,2715.84 3957.07,69.15 2719.98,58.01 "/>
  <path class="fil2" d="M10248.57 11576.9c-60.57,-100.35 -2510.84,-1478.93 -2727.6,-1608.94 -168.12,-100.83 -833.57,-492.37 -968.68,-515.34 80.32,138.76 236.96,244.68 382.15,374.73l1900.51 1715.85c143.83,93.31 1158.13,46.72 1413.62,33.7z"/>
  <path class="fil2" d="M1566.33 11575.16c248.58,18.69 1258.79,62.34 1410.71,-28.88l2176.47 -1960.54c5.64,-5.77 42.14,-43.23 44.12,-45.69 44.5,-55.88 20.2,-13.09 55.03,-86.58 -143.65,22.32 -766.41,412.67 -954.43,519.27 -320.45,181.76 -612.44,343.29 -916.9,530.96 -310.16,191.2 -1674.29,921.04 -1815,1071.46z"/>
  <path class="fil0" d="M5408.04 7528.45l-991.38 -1433.4c-273.94,-381.77 -112.92,-191.5 -207.12,-631.79l-772.63 -1.98c-75.84,418.92 108.96,469.85 588.55,880.06l824.48 709.16c188.08,179.95 364.1,318.82 558.1,477.95z"/>
  <path class="fil2" d="M7865.25 11582.95l812.14 1.33c-74.03,-104.68 -148.5,-170.38 -251.93,-266.11l-565.65 -508.33c-78.37,-73.01 -210.33,-181.01 -290.27,-257.13 -84.53,-80.42 -1024.5,-956.85 -1160.08,-1014.78 38.14,146.86 629.22,906.88 727.31,1041.44 246.6,338.23 512.95,690.81 728.48,1003.58z"/>
  <path class="fil2" d="M3147.21 11583.05l820.66 -0.2c60.73,-140.1 617.49,-887.54 741.87,-1053.82l760.12 -1058.78c-87.05,37.5 -489.63,415.17 -593.06,503.72l-1441.91 1305.75c-106.64,93.31 -248.99,192.97 -287.68,303.33z"/>
  <path class="fil2" d="M4107.59 11581.68l585.4 3.83 619.48 -1409.2c57.53,-117.64 193.59,-400.02 205.21,-516.5 -106.53,56.15 -84.04,80.04 -205.99,228.1 -143.41,174.04 -1185.2,1617.42 -1204.1,1693.77z"/>
  <path class="fil2" d="M7120.47 11573.79l577.17 13.3c-28.44,-134.91 -839.22,-1202.16 -1020.09,-1444.55 -57.79,-77.45 -112.55,-175.57 -162.82,-241.71 -95.09,-124.99 -127.52,-197.68 -224.79,-242.63 23.24,139.59 140.54,363.08 198.47,496.54l422.51 941.27c66.31,139.65 130.77,345.89 209.55,477.78z"/>
  <path class="fil2" d="M4831.72 11579.94l465.89 6.97 376.81 -1777.13c6.9,-211.73 19.07,-52.94 -29.77,-108.99 -96.38,174.17 -801.58,1777.37 -812.93,1879.15z"/>
  <path class="fil2" d="M6512.4 11577.62l475.59 11.55c-28.6,-205.44 -700.04,-1548.1 -850.62,-1982.34 -54.62,105.03 33.52,330.16 59.23,465.95 32.57,171.92 60.25,326.24 100.65,501.71 79.36,344.86 146.93,667.6 215.15,1003.13z"/>
  <path class="fil2" d="M5981.14 11562.34c95.66,39.2 284.02,30.59 412.8,13.98l-413.11 -1989.48c-40.02,235.31 -49.59,1856.35 0.31,1975.5z"/>
  <path class="fil2" d="M5432.88 11583.63l410.89 1.85 6.81 -1953.8c-79.74,137.57 -417.8,1752.73 -417.7,1951.95z"/>
  <path class="fil2" d="M5794.04 8165.88l-0.99 1006.85 218.98 2.05 5.71 -1404.72c-152.02,-21.47 -199.91,-44.26 -225.61,76.69 -13.29,62.48 1.91,244.58 1.91,319.13z"/>
 </g>
</svg>
