<?xml version="1.0" encoding="UTF-8"?>
<!DOCTYPE svg PUBLIC "-//W3C//DTD SVG 1.1//EN" "http://www.w3.org/Graphics/SVG/1.1/DTD/svg11.dtd">
<!-- Creator: CorelDRAW 2020 (64-Bit) -->
<svg xmlns="http://www.w3.org/2000/svg" xml:space="preserve" width="11811px" height="11811px" version="1.1" style="shape-rendering:geometricPrecision; text-rendering:geometricPrecision; image-rendering:optimizeQuality; fill-rule:evenodd; clip-rule:evenodd"
viewBox="0 0 11811 11811"
 xmlns:xlink="http://www.w3.org/1999/xlink"
 xmlns:xodm="http://www.corel.com/coreldraw/odm/2003">
 <defs>
  <style type="text/css">
   <![CDATA[
    .fil0 {fill:#999999}
   ]]>
  </style>
 </defs>
 <g id="Слой_x0020_1">
  <metadata id="CorelCorpID_0Corel-Layer"/>
  <g id="_2564321320432">
   <path class="fil0" d="M416.97 8612.19l8924.95 0 0 364.78 -8924.95 0c1.84,-82.13 20.5,-94.04 16.43,-164.84 -2.59,-45.04 -16.43,-109.38 -16.43,-199.94zm462.06 -753.88l8025.15 0c67.57,0 115.12,111.33 150.89,165.25 51.67,77.89 73.76,118.53 116.61,199.53l-8584.47 0c71.28,-106.46 211.69,-364.78 291.82,-364.78zm48.64 -2018.44c0,-63.53 453.76,-486.38 510.69,-486.38l7417.18 0 0 2115.73c-2642.62,0 -5285.25,0 -7927.87,0l0 -1629.35zm4815.09 -1532.08c0,-57.86 225.84,-306.42 288.08,-392.84 79.18,-109.93 66.88,-117.85 125.34,-117.85l2261.63 0c72.16,0 149.49,141.51 237.61,248.76 272.23,331.34 200.12,225.56 200.12,918.54l-3112.78 0 0 -656.61zm-1775.26 -1240.25l-729.57 0 0 1896.86 -1775.25 0 0 -2261.64c0,-66.42 547.82,-583.64 607.96,-583.64l2358.91 0c0,816.29 60.48,658.8 -199.26,822.12 -72.29,45.45 -160.31,126.3 -262.79,126.3zm3161.42 -1288.89l632.28 0 0 997.07 -632.28 0 0 -997.07zm1021.39 316.15l1921.17 0c163.77,0 291.82,29.35 291.82,194.54l0 3039.83c0,135.67 -293.02,378.14 -431.66,516.78 -40.22,40.22 -199.07,210.16 -236.91,225.14 -81.7,32.34 -366.93,11.97 -474.41,11.97 24.72,-296.97 0,-87.76 0,-364.79 419.11,0 290.45,37.86 553.25,-224.94 52.75,-52.75 224.95,-187.89 224.95,-261.43l0 -2699.37c0,-56.04 -16.92,-72.95 -72.96,-72.95l-1775.25 0 0 -364.78zm-1410.49 -48.64l-486.37 0 0 364.78 486.37 0 0 753.87 1410.49 0 0 -316.14 1459.11 0 0 2213c0,58.31 -168.28,220.18 -216.38,247.37 -33.67,19.04 -34.22,22.99 -94.56,29.99 -68.4,7.93 -78.16,22.55 -78.16,-204.41l14.6 -295.08c1.96,-79.74 -14.6,-17.19 -14.6,-118.33 0,-131.03 28.14,-65.26 11.06,-204.02 -11.58,-94.06 -14.29,-159.08 -7.87,-258.67 11.19,-173.71 -46.79,-155.08 -159.75,-304.85 -57.05,-75.65 -374.02,-545.67 -475.72,-545.67l-2602.1 0c-95.6,0 -478.6,558.43 -575.29,685.6 -3,3.94 -7.83,9.21 -10.78,13.28 -44.23,60.8 -46.21,-9.58 -46.21,79.32l0 778.2 -1726.62 0 0 -1507.76c278.71,0 407.53,52.65 640.03,-89.53l379.99 -227.97c251.04,-147.04 171.59,-36.42 171.59,-728.2l486.37 0 0 -364.78 -486.37 0c0,-83.2 51.71,-316.15 -72.95,-316.15l-2820.97 0c-43.98,0 -338.91,282.66 -407.64,346.24 -50.14,46.37 -84.38,84.95 -133.45,134.06 -44.95,44.99 -75.34,79.62 -121.3,121.88 -276.99,254.75 -164.44,106.83 -164.44,759.67 0,117.79 -21.77,165.97 -21.77,243.19l21.77 413.41c0,127.62 -20.67,182.54 -23.17,268.9l23.17 412.03c0,127.61 -20.67,182.54 -23.17,268.9 -6.43,222.68 116.31,374.44 -98.24,533.79 -106.62,79.19 -373.45,309.35 -415.93,410.91 -74.71,178.63 -22.08,1278.08 -21.99,1607.36 0.13,478.89 -34.31,416.29 -291.83,802.52 -279.48,419.17 -194.54,353.62 -194.54,1142.97 0,191.83 255.54,145.91 364.77,145.91 95.86,0 111,17.24 170.24,17.24l370.14 -0.78c81.19,4.43 69.83,-16.46 164.87,-16.46 97.67,0 78.13,17.5 145.84,17.3l370.22 -0.84c81.18,4.43 69.82,-16.46 164.86,-16.46 95.85,0 111,17.24 170.23,17.24l345.82 -0.78c81.19,4.43 69.83,-16.46 164.87,-16.46 95.85,0 111,17.24 170.23,17.24l345.83 -0.78c81.18,4.43 69.83,-16.46 164.86,-16.46 95.85,0 111,17.24 170.23,17.24l243.19 -17.24c59.54,0 93.88,13.63 124.6,14.35 64.93,1.52 49.68,-14.35 142.9,-14.35 95.85,0 111,17.24 170.23,17.24l218.87 -17.24c95.85,0 111,17.24 170.23,17.24 59.23,0 74.38,-17.24 170.23,-17.24 59.55,0 93.88,13.63 124.6,14.35l367.14 2.11c81.18,4.43 69.83,-16.46 164.86,-16.46 95.85,0 111,17.24 170.24,17.24l345.82 -0.78c81.19,4.43 69.83,-16.46 164.87,-16.46 95.84,0 111,17.24 170.23,17.24l345.83 -0.78c81.18,4.43 69.82,-16.46 164.86,-16.46 95.85,0 111,17.24 170.23,17.24l243.19 -17.24c59.54,0 93.88,13.63 124.59,14.35 64.93,1.52 49.69,-14.35 142.91,-14.35 95.85,0 111,17.24 170.23,17.24l218.87 -17.24c95.85,0 111,17.24 170.23,17.24 59.23,0 74.39,-17.24 170.23,-17.24 59.55,0 93.88,13.63 124.59,14.35l367.15 2.11c81.19,4.43 69.83,-16.46 164.87,-16.46 95.84,0 110.99,17.24 170.22,17.24l345.83 -0.78c81.19,4.43 69.83,-16.46 164.87,-16.46 165.41,0 389.09,61.25 389.09,-194.55l0 -705.24c0,-98.86 -72.55,-179.75 -116.82,-247.95 -126.68,-195.15 -393.87,-521.02 -393.87,-749.11 0,-101.15 16.56,-38.59 14.6,-118.34l1.99 -422.17c6.73,-116.55 -16.59,-20.71 -16.59,-140.42 0,-119.71 23.32,-23.86 16.59,-140.41 -2.27,-39.24 -16.59,-68.23 -16.59,-151.41 649.66,0 592.15,27.98 1088.26,-468.13 156.44,-156.44 443.82,-364.42 443.82,-650.53l0 -2869.6 656.6 0c-2.43,109.01 -22.39,78.75 -19.52,167.93l19.52 318.45 364.78 0 0 -1386.16 -364.78 24.32 -17.87 322.97c-7.03,80.82 11.53,87.24 17.87,163.4l-705.24 0c-41.67,-178.83 -245.23,-364.79 -462.06,-364.79l-2091.39 0c0,-426.49 27.82,-316.14 -145.92,-316.14 -97.67,0 -78.14,-17.49 -145.85,-17.29 -245.46,0.73 -72.71,20.69 -418.98,0.71 -116.54,-6.73 -20.7,16.58 -140.41,16.58 -119.71,0 -23.87,-23.31 -140.42,-16.58 -117.55,6.78 -293.77,21.41 -418.91,-7.73l0 656.6z"/>
   <path class="fil0" d="M6520.95 6058.74l1702.31 0 0 826.83 -1702.31 0 0 -826.83zm-389.09 -194.55l0 1240.24c0,87.79 86.55,131.45 168.73,148.55 100.58,20.94 537.69,-2.63 682.42,-2.63 59.54,0 93.88,13.63 124.59,14.35l240.19 -14.35c59.54,0 93.87,13.63 124.59,14.35l191.55 -14.35c59.55,0 93.88,13.63 124.59,14.35l215.87 -14.35c95.77,0 111.17,17.29 170.22,17.23 52.19,-0.07 102.36,-14.99 195.26,-16.39 109.15,-1.64 112.64,18.64 178.49,-40.53 38.81,-34.87 63.99,-89.15 63.99,-154.86l0 -1191.61c0,-117.64 -76.91,-194.56 -194.54,-194.56l-2091.41 0c-117.63,0 -194.54,76.92 -194.54,194.56z"/>
   <path class="fil0" d="M7931.44 4380.75c0,-66.03 86.99,-0.02 21.79,1.33 -24.56,0.5 -21.79,53.96 -21.79,-1.33zm-316.15 -48.64c0,364.26 371.4,499.59 573.85,282.03 298.96,-321.26 -144.61,-749.58 -457.18,-481.51 -25.89,22.19 -116.67,170.5 -116.67,199.48z"/>
   <path class="fil0" d="M6593.91 4356.43l72.96 0 0 48.64 -72.96 0 0 -48.64zm-291.83 0c0,220.09 158.85,358.52 315.8,360.08 431.21,4.27 468.34,-641.81 19.65,-670.7 -162.61,-10.47 -335.45,151.96 -335.45,310.62z"/>
   <path class="fil0" d="M1997.69 2727.08c0,108.32 114.88,72.96 367.81,72.96 100.61,0 69.92,-102.03 69.92,-316.15 0,-114.18 -149.39,-72.95 -437.73,-72.95l0 316.14z"/>
   <path class="fil0" d="M2727.24 2727.08c0,108.05 113.52,72.96 364.79,72.96 110.13,0 72.95,-124.74 72.95,-389.1l-437.74 0 0 316.14z"/>
   <path class="fil0" d="M2727.24 6593.74l272.88 16.46c70.83,3.87 82.72,-14.63 164.86,-16.46l0 -364.78 -437.74 0 0 364.78z"/>
   <path class="fil0" d="M1997.69 6593.74l170.22 0c168.09,0 102.87,38.36 267.51,0 0,-113.62 45.84,-364.78 -72.95,-364.78l-364.78 0 0 364.78z"/>
   <path class="fil0" d="M3481.12 2800.04l340.46 0c56.04,0 72.96,-16.92 72.96,-72.96l0 -316.14 -413.42 0 0 389.1z"/>
   <path class="fil0" d="M3481.12 6593.74l145.77 5.53c222.84,35.35 77.12,-5.53 267.65,-5.53l0 -364.78 -413.42 0 -9.59 107.75c-0.79,5.9 -2.74,12.54 -3.35,18.27 -4.66,43.53 -0.31,40.21 -0.42,51.88l13.36 186.88z"/>
  </g>
 </g>
</svg>
