<?xml version="1.0" encoding="UTF-8"?>
<!DOCTYPE svg PUBLIC "-//W3C//DTD SVG 1.1//EN" "http://www.w3.org/Graphics/SVG/1.1/DTD/svg11.dtd">
<!-- Creator: CorelDRAW 2020 (64-Bit) -->
<svg xmlns="http://www.w3.org/2000/svg" xml:space="preserve" width="11811px" height="11811px" version="1.1" style="shape-rendering:geometricPrecision; text-rendering:geometricPrecision; image-rendering:optimizeQuality; fill-rule:evenodd; clip-rule:evenodd"
viewBox="0 0 11811 11811"
 xmlns:xlink="http://www.w3.org/1999/xlink"
 xmlns:xodm="http://www.corel.com/coreldraw/odm/2003">
 <defs>
  <style type="text/css">
   <![CDATA[
    .fil0 {fill:#999999}
   ]]>
  </style>
 </defs>
 <g id="Слой_x0020_1">
  <metadata id="CorelCorpID_0Corel-Layer"/>
  <g id="_2564213412096">
   <path class="fil0" d="M2316.42 5681.84c427.9,0 824.19,204.93 1041.23,424.35 390.25,394.55 470.87,681.86 470.87,1227.33 0,383.04 -238.07,761.92 -435.97,959.82 -597.58,597.58 -1554.25,591.12 -2187.15,-34.9 -260.6,-257.75 -448.66,-740.26 -421.78,-1083.67 29.77,-380.46 186.91,-806.56 459.4,-1054.22 289.04,-262.71 656.83,-438.71 1073.4,-438.71zm2116.94 837.47c103.21,27.56 316.91,314.13 395.5,418.72 360.57,479.92 620.78,1144.5 674.61,1791.28l-1535.37 0c68.48,-102.27 132.82,-175.81 204.79,-283.73l183.1 -328.7c200.44,-418.33 278.76,-1177.86 77.37,-1597.57zm139.58 -837.47c677.68,0 3208.63,-32.97 3770.12,45.04 566.9,78.76 1107.1,328.65 1526.69,683.3 176.68,149.33 330.56,298.42 469.38,484.41 92.08,123.39 187.68,254.41 259.11,392.26 167.55,323.31 273.56,544.49 354.65,924.83 80.7,378.51 110.47,751.49 110.47,1215.52 0,53.61 -16.19,69.8 -69.8,69.8l-4768.94 0c0,-1034.11 -44.83,-1546.66 -511.61,-2489.33 -371.47,-750.21 -1091.89,-1253.88 -1140.07,-1325.83zm-744.42 -2349.57c0,542.91 -85.42,839.48 -482.36,1239.11 -235.5,237.1 -668.74,414.44 -1084.16,394.75 -333.09,-15.78 -593.3,-99.06 -836.74,-277.45l-199.87 -172.33c-437.32,-456.84 -556.52,-1103.97 -311.9,-1679.75 132.67,-312.26 427.81,-613.51 727.73,-761.11 1017.42,-500.65 2187.3,304.22 2187.3,1256.78zm116.32 -1419.06c1163.15,0 2326.31,0.01 3489.46,0 541.16,0 983.17,11.28 1389.05,355.7 161.46,137.02 278.85,282.41 386.61,474.13 461.59,821.26 -36.86,1956.13 -956.15,2176.42 -242.68,58.15 -507.91,64.49 -819.51,64.49 -1163.15,-0.01 -2326.31,0 -3489.46,0 198.17,-295.96 416.54,-466.41 540.5,-994.86 158.6,-676.06 14.46,-1392.31 -416.83,-1920.39 -41.68,-51.03 -93.08,-109.79 -123.67,-155.49zm-3861.68 1419.06c0,575.44 111.73,1038.26 468.25,1485.85l150.39 175.29c94.86,94.31 273.88,281.23 404.93,316.23l-362.85 311.77c-53.73,41.96 -43.82,36.52 -79.49,83.35 -193.48,253.99 -329.59,373.45 -462.34,770.6 -282.17,844.15 -77.62,1701.19 549.92,2329.56 375.63,376.13 936.96,645.55 1517.92,645.55l3256.84 0 0 744.42 6234.52 0c0,-811.35 57.77,-1531.2 -154.38,-2311.52 -28.31,-104.13 -67.95,-205.07 -98.39,-297.07 -358.56,-1083.58 -1140.43,-1854.27 -2151.74,-2314.79 -70.87,-32.28 -90.23,-22.3 -131.18,-78.19 149.62,-39.95 494.49,-502.61 580.6,-652.35 491.07,-853.96 340.53,-1950.89 -377.04,-2668.46 -383.53,-383.54 -913.48,-657.19 -1506.29,-657.19l-5676.2 0c-696.82,0 -1353.06,388.19 -1748.38,926.88 -217.84,296.83 -415.09,783.89 -415.09,1190.07z"/>
   <path class="fil0" d="M2316.42 3657.95c-284.11,0 -284.11,-418.73 0,-418.73 275.34,0 275.34,418.73 0,418.73zm-930.53 -209.36c0,818.81 1001.92,1233.7 1583.11,652.57 349.16,-349.13 374.74,-921.6 -14.91,-1313.51 -3.37,-3.4 -8.27,-8.23 -11.71,-11.55 -398.94,-385.55 -1004.22,-340.45 -1387.02,144.06 -95.85,121.31 -169.47,364.04 -169.47,528.43z"/>
   <path class="fil0" d="M2293.16 7426.57c-190.96,0 -342.25,-418.73 69.78,-418.73 199.39,0 258.96,418.73 -69.78,418.73zm-907.27 -209.36c0,565.82 519.56,1010.38 1110.38,901.15 672.33,-124.31 1091.16,-1059.83 361.16,-1651.54 -531.28,-430.63 -1471.54,-52.19 -1471.54,750.39z"/>
  </g>
 </g>
</svg>
