<?xml version="1.0" encoding="UTF-8" standalone="no"?>
<!-- Created with Inkscape (http://www.inkscape.org/) -->

<svg
   width="135.14008mm"
   height="78.516884mm"
   viewBox="0 0 135.14008 78.516884"
   version="1.1"
   id="svg5"
   xml:space="preserve"
   inkscape:export-filename="растровый.svg"
   inkscape:export-xdpi="96"
   inkscape:export-ydpi="96"
   xmlns:inkscape="http://www.inkscape.org/namespaces/inkscape"
   xmlns:sodipodi="http://sodipodi.sourceforge.net/DTD/sodipodi-0.dtd"
   xmlns="http://www.w3.org/2000/svg"
   xmlns:svg="http://www.w3.org/2000/svg"><sodipodi:namedview
     id="namedview7"
     pagecolor="#ffffff"
     bordercolor="#999999"
     borderopacity="1"
     inkscape:showpageshadow="0"
     inkscape:pageopacity="0"
     inkscape:pagecheckerboard="0"
     inkscape:deskcolor="#d1d1d1"
     inkscape:document-units="mm"
     showgrid="false" /><defs
     id="defs2" /><g
     inkscape:label="Слой 1"
     inkscape:groupmode="layer"
     id="layer1"
     transform="translate(-37.047727,-90.942037)"><g
       id="g71"
       transform="translate(19.246645,8.4718389)"
       style="fill:#d45500"><path
         style="fill:#d45500;fill-opacity:1;stroke-width:0.264583"
         d="M 60.214559,110.54787 35.211959,85.478596 60.281228,110.4812 c 13.788099,13.75142 25.06927,25.03259 25.06927,25.06927 0,0.0367 -0.03,0.0667 -0.06667,0.0667 -0.03667,0 -11.317842,-11.28118 -25.069269,-25.06927 z M 27.869772,82.525243 c 0.181901,-0.0734 0.479557,-0.0734 0.661458,0 0.181901,0.0734 0.03307,0.133454 -0.330729,0.133454 -0.363802,0 -0.51263,-0.06006 -0.330729,-0.133454 z m 114.564578,0 c 0.1819,-0.0734 0.47956,-0.0734 0.66146,0 0.1819,0.0734 0.0331,0.133454 -0.33073,0.133454 -0.3638,0 -0.51263,-0.06006 -0.33073,-0.133454 z"
         id="path81" /><path
         style="fill:#d45500;fill-opacity:1;stroke-width:0.264583"
         d="m 110.48591,110.61401 c 13.75114,-13.751716 25.06161,-25.003122 25.13437,-25.003122 0.0728,0 -11.11864,11.251406 -24.86978,25.003122 -13.751145,13.75172 -25.061608,25.00313 -25.134368,25.00313 -0.07276,0 11.11864,-11.25141 24.869778,-25.00313 z"
         id="path79" /><path
         style="fill:#d45500;fill-opacity:1;stroke-width:0.264583"
         d="m 130.85883,119.87443 c 10.54951,-10.55026 19.24045,-19.18229 19.31321,-19.18229 0.0728,0 -8.49912,8.63203 -19.04863,19.18229 -10.54951,10.55026 -19.24045,19.18229 -19.31321,19.18229 -0.0728,0 8.49912,-8.63203 19.04863,-19.18229 z"
         id="path77" /><path
         style="fill:#d45500;fill-opacity:1;stroke-width:0.264583"
         d="m 102.15154,148.58172 c 5.23723,-5.23875 9.58177,-9.525 9.65453,-9.525 0.0728,0 -4.15271,4.28625 -9.38995,9.525 -5.237232,5.23875 -9.581772,9.525 -9.654532,9.525 -0.07276,0 4.152717,-4.28625 9.389952,-9.525 z"
         id="path75" /><path
         style="fill:#d45500;fill-opacity:1;stroke-width:0.264583"
         d="m 81.990459,160.51104 c -0.756613,-0.25795 -1.828175,-0.80149 -2.38125,-1.20788 C 79.056138,158.89676 65.363903,145.33468 49.182024,129.16518 21.530132,101.53445 19.711401,99.660852 18.94541,98.016422 c -1.946474,-4.178697 -1.394896,-8.347733 1.541033,-11.647706 3.48178,-3.913505 8.580317,-4.761754 12.873433,-2.141763 0.582083,0.355233 12.548395,12.122576 26.591806,26.149657 l 25.53347,25.50378 25.398818,-25.40826 c 13.96935,-13.974546 25.94465,-25.761196 26.61178,-26.192559 3.35708,-2.170657 7.25613,-2.094238 10.76682,0.211026 3.47184,2.279759 5.20365,6.236152 4.53827,10.367846 -0.61042,3.790323 1.35602,1.63218 -31.30877,34.361007 -17.78262,17.81748 -30.353269,30.21364 -30.982197,30.55215 -0.582084,0.3133 -1.534584,0.7199 -2.116667,0.90357 -1.513504,0.47755 -4.765005,0.3942 -6.402747,-0.16413 z"
         id="path73" /></g></g></svg>
