<?xml version="1.0" encoding="UTF-8" standalone="no"?>
<!-- Created with Inkscape (http://www.inkscape.org/) -->

<svg
   width="384.71704mm"
   height="49.956169mm"
   viewBox="0 0 384.71704 49.956169"
   version="1.1"
   id="svg21"
   xml:space="preserve"
   xmlns="http://www.w3.org/2000/svg"
   xmlns:svg="http://www.w3.org/2000/svg"><defs
     id="defs18"><linearGradient
       id="linearGradient5455"><stop
         style="stop-color:#010e12;stop-opacity:0.70318222;"
         offset="0"
         id="stop5451" /><stop
         style="stop-color:#ffffff;stop-opacity:0;"
         offset="1"
         id="stop5453" /></linearGradient></defs><g
     id="layer1"
     transform="translate(73.229357,-68.687826)"><g
       id="g6031"
       transform="translate(22.48207,69.195944)"><path
         style="fill:#f9c8ad;stroke-width:0.264583"
         d="m 34.9266,49.292343 c 0.181901,-0.0734 0.479557,-0.0734 0.661458,0 0.181901,0.0734 0.03307,0.133453 -0.330729,0.133453 -0.363802,0 -0.51263,-0.06005 -0.330729,-0.133453 z m 3.96875,0 c 0.181901,-0.0734 0.479557,-0.0734 0.661458,0 0.181901,0.0734 0.03307,0.133453 -0.330729,0.133453 -0.363802,0 -0.51263,-0.06005 -0.330729,-0.133453 z m 32.560287,-0.0055 c 0.190995,-0.07643 0.4192,-0.06703 0.507119,0.02088 0.08792,0.08792 -0.06835,0.150452 -0.347266,0.138964 -0.308226,-0.0127 -0.370919,-0.07539 -0.159853,-0.159851 z m 4.354123,-0.0026 c 0.257432,-0.06708 0.61462,-0.06267 0.793751,0.0098 0.17913,0.07248 -0.03149,0.127363 -0.468056,0.12197 -0.436563,-0.0054 -0.583126,-0.06469 -0.325695,-0.131773 z m 31.10004,-0.261969 c 0.191,-0.07643 0.4192,-0.06703 0.50712,0.02088 0.0879,0.08792 -0.0684,0.150452 -0.34726,0.138964 -0.30823,-0.0127 -0.37092,-0.07539 -0.15986,-0.159851 z m 4.23334,0 c 0.19099,-0.07643 0.4192,-0.06703 0.50712,0.02088 0.0879,0.08792 -0.0684,0.150452 -0.34727,0.138964 -0.30823,-0.0127 -0.37092,-0.07539 -0.15985,-0.159851 z m 2.64583,-0.264583 c 0.191,-0.07643 0.4192,-0.06703 0.50712,0.02088 0.0879,0.08792 -0.0684,0.150453 -0.34727,0.138965 -0.30822,-0.0127 -0.37092,-0.07539 -0.15985,-0.159851 z m 26.37037,-9.079653 0.005,-8.863542 4.96115,-0.009 4.96115,-0.009 -4.89149,0.08097 -4.89149,0.08097 -0.0749,8.791572 -0.0749,8.791562 z m -79.924024,5.22552 -0.504028,-0.595312 0.595312,0.504028 c 0.559446,0.473663 0.715762,0.686597 0.504029,0.686597 -0.05021,0 -0.318098,-0.267891 -0.595313,-0.595313 z m -36.76859,-0.529166 -0.777106,-0.859896 0.859896,0.777105 c 0.801545,0.724371 0.981512,0.942686 0.777105,0.942686 -0.04553,0 -0.432488,-0.386953 -0.859895,-0.859895 z M 73.95628,41.604795 c 0.402183,-0.06082 0.997495,-0.05919 1.322917,0.0036 0.325421,0.0628 -0.0036,0.112559 -0.731242,0.110574 -0.727605,-0.0021 -0.993857,-0.05337 -0.591675,-0.114186 z m 38.62553,-1.844608 c 0.25466,-0.06655 0.67138,-0.06655 0.92604,0 0.25466,0.06655 0.0463,0.121002 -0.46302,0.121002 -0.50932,0 -0.71768,-0.05445 -0.46302,-0.121002 z m 173.18633,0.0016 c 0.191,-0.07643 0.41921,-0.06703 0.50713,0.02088 0.0879,0.08792 -0.0684,0.150452 -0.34727,0.138964 -0.30824,-0.0127 -0.37092,-0.07539 -0.15986,-0.15985 z M 90.576135,39.259008 c 0.0127,-0.308227 0.07539,-0.37092 0.159851,-0.159854 0.07643,0.190995 0.06703,0.419198 -0.02088,0.507119 -0.08792,0.08792 -0.150452,-0.06835 -0.138964,-0.347265 z m 19.789115,-0.308624 c -0.32911,-0.419645 -0.31975,-0.429003 0.0999,-0.0999 0.25466,0.199721 0.46302,0.40808 0.46302,0.463021 0,0.217763 -0.21727,0.0776 -0.56291,-0.363125 z M 78.879829,38.685801 c -0.329107,-0.419645 -0.319749,-0.429003 0.0999,-0.0999 0.440729,0.345644 0.580887,0.562917 0.363124,0.562917 -0.05494,0 -0.2633,-0.208359 -0.463021,-0.463021 z m -91.667852,-5.357812 c 0,-2.546615 0.03968,-3.588412 0.08819,-2.315104 0.0485,1.273307 0.0485,3.356901 0,4.630208 -0.0485,1.273307 -0.08819,0.23151 -0.08819,-2.315104 z m 65.70629,4.322688 c 0.181901,-0.0734 0.479557,-0.0734 0.661458,0 0.181901,0.0734 0.03307,0.133453 -0.330729,0.133453 -0.363802,0 -0.51263,-0.06005 -0.330729,-0.133453 z m -3.96875,-0.264583 c 0.181901,-0.0734 0.479557,-0.0734 0.661458,0 0.181901,0.0734 0.03307,0.133453 -0.330729,0.133453 -0.363802,0 -0.51263,-0.06006 -0.330729,-0.133453 z m -3.96875,-0.264584 c 0.181901,-0.0734 0.479557,-0.0734 0.661458,0 0.181901,0.0734 0.03307,0.133454 -0.330729,0.133454 -0.363802,0 -0.51263,-0.06006 -0.330729,-0.133454 z M -1.3874633,36.502989 c 0.2633901,-0.291042 0.5384218,-0.529167 0.61118221,-0.529167 0.0727604,0 -0.0832088,0.238125 -0.34659891,0.529167 -0.26339,0.291041 -0.5384218,0.529166 -0.6111822,0.529166 -0.07276,0 0.083209,-0.238125 0.3465989,-0.529166 z M 37.837017,34.71734 c 3.092317,-0.04233 8.152474,-0.04233 11.244791,0 3.092318,0.04233 0.56224,0.07696 -5.622396,0.07696 -6.184635,0 -8.714713,-0.03463 -5.622395,-0.07696 z m 16.512087,-4.035184 c 0,-0.363803 0.06006,-0.512631 0.133454,-0.33073 0.0734,0.181901 0.0734,0.479558 0,0.661459 -0.0734,0.181901 -0.133454,0.03307 -0.133454,-0.330729 z M -1.2889219,30.219135 c -0.3291073,-0.419645 -0.319749,-0.429004 0.099896,-0.0999 0.25466146,0.19972 0.46302084,0.40808 0.46302084,0.46302 0,0.217763 -0.21727319,0.0776 -0.56291694,-0.363124 z M 34.516342,28.368684 c 1.265947,-0.04839 3.409072,-0.04862 4.7625,-5.29e-4 1.353429,0.04812 0.317654,0.08771 -2.301721,0.08799 -2.619375,2.64e-4 -3.726725,-0.03909 -2.460779,-0.08749 z m 6.847293,-1.809618 c 0.0127,-0.308226 0.07539,-0.370919 0.15985,-0.159853 0.07643,0.190995 0.06703,0.419198 -0.02088,0.507119 -0.08792,0.08792 -0.150453,-0.06835 -0.138965,-0.347266 z M 162.7865,25.555176 c 0,-0.05494 0.20836,-0.2633 0.46302,-0.463021 0.41965,-0.329107 0.42899,-0.319748 0.0999,0.0999 -0.34566,0.440729 -0.56293,0.580887 -0.56293,0.363124 z m 82.50039,-1.668343 c 0.191,-0.07643 0.41921,-0.06703 0.50713,0.02088 0.0879,0.08792 -0.0684,0.150452 -0.34727,0.138964 -0.30824,-0.0127 -0.37092,-0.07539 -0.15986,-0.159851 z m -60.34154,-0.788239 c 0.1819,-0.0734 0.47956,-0.0734 0.66146,0 0.1819,0.0734 0.0331,0.133453 -0.33073,0.133453 -0.3638,0 -0.51263,-0.06006 -0.33073,-0.133453 z M 36.79522,22.563916 c 0.190994,-0.07643 0.4192,-0.06703 0.507119,0.02088 0.08792,0.08792 -0.06835,0.150453 -0.347266,0.138964 -0.308226,-0.0127 -0.370919,-0.07539 -0.159853,-0.15985 z m 36.499049,-0.0064 c 0.329118,-0.06329 0.805368,-0.06088 1.058333,0.0053 0.252966,0.06622 -0.01633,0.118005 -0.598397,0.115068 -0.582084,-0.0029 -0.789054,-0.05712 -0.459936,-0.120407 z M 50.040246,20.429552 c -0.329108,-0.419645 -0.319749,-0.429004 0.0999,-0.0999 0.440729,0.345643 0.580887,0.562917 0.363124,0.562917 -0.05494,0 -0.2633,-0.20836 -0.46302,-0.463021 z m 121.212914,0.38023 c 0,-0.04553 0.38696,-0.432488 0.8599,-0.859896 l 0.8599,-0.777105 -0.77711,0.859896 c -0.72438,0.801544 -0.94269,0.981511 -0.94269,0.777105 z m 27.10315,-0.777105 -0.7771,-0.859896 0.85989,0.777105 c 0.80156,0.724371 0.98153,0.942687 0.77711,0.942687 -0.0455,0 -0.43249,-0.386954 -0.8599,-0.859896 z M 60.657329,20.26351 c 0,-0.05494 0.20836,-0.2633 0.463021,-0.463021 0.419645,-0.329107 0.429004,-0.319749 0.0999,0.0999 -0.345643,0.44073 -0.562917,0.580887 -0.562917,0.363125 z M 48.981912,19.371218 c -0.329107,-0.419645 -0.319749,-0.429003 0.0999,-0.0999 0.44073,0.345644 0.580888,0.562917 0.363125,0.562917 -0.05494,0 -0.2633,-0.208359 -0.463021,-0.463021 z m 12.733751,-0.166042 c 0,-0.05494 0.208359,-0.2633 0.463021,-0.46302 0.419645,-0.329108 0.429003,-0.319749 0.0999,0.0999 -0.345644,0.440729 -0.562917,0.580887 -0.562917,0.363124 z m 90.000107,-3.868853 c 0,-0.363802 0.0601,-0.51263 0.13346,-0.330729 0.0734,0.181901 0.0734,0.479557 0,0.661458 -0.0734,0.181901 -0.13346,0.03307 -0.13346,-0.330729 z M 34.678553,15.155583 c 0.190995,-0.07643 0.4192,-0.06703 0.507119,0.02088 0.08792,0.08792 -0.06835,0.150452 -0.347266,0.138964 -0.308226,-0.0127 -0.370919,-0.07539 -0.159853,-0.15985 z m 3.96875,0 c 0.190995,-0.07643 0.419201,-0.06703 0.507119,0.02088 0.08792,0.08792 -0.06835,0.150452 -0.347266,0.138964 -0.308226,-0.0127 -0.370919,-0.07539 -0.159853,-0.15985 z m 33.056381,0.0055 c 0.181901,-0.0734 0.479557,-0.0734 0.661458,0 0.181901,0.0734 0.03307,0.133453 -0.330729,0.133453 -0.363802,0 -0.51263,-0.06006 -0.330729,-0.133453 z m 4.24987,-0.0055 c 0.190994,-0.07643 0.4192,-0.06703 0.507119,0.02088 0.08792,0.08792 -0.06835,0.150452 -0.347266,0.138964 -0.308226,-0.0127 -0.370919,-0.07539 -0.159853,-0.15985 z M -53.04736,13.566438 c 0.254661,-0.06655 0.67138,-0.06655 0.926042,0 0.254661,0.06655 0.0463,0.121001 -0.463021,0.121001 -0.509323,0 -0.717682,-0.05445 -0.463021,-0.121001 z m 267.89373,-0.0047 c 0.32911,-0.06328 0.80536,-0.06088 1.05833,0.0053 0.25294,0.06622 -0.0164,0.118004 -0.59841,0.115067 -0.58208,-0.0029 -0.78907,-0.05712 -0.45992,-0.120406 z M 13.338687,12.425906 c 0,-0.363802 0.06006,-0.51263 0.133453,-0.330729 0.0734,0.181901 0.0734,0.479557 0,0.661458 -0.0734,0.181901 -0.133453,0.03307 -0.133453,-0.330729 z M 219.67192,11.764448 c 0.34176,-0.363802 0.68093,-0.661458 0.75369,-0.661458 0.0728,0 -0.14735,0.297656 -0.48911,0.661458 -0.34176,0.363802 -0.68093,0.661458 -0.75369,0.661458 -0.0728,0 0.14734,-0.297656 0.48911,-0.661458 z m -268.022926,0.296979 c 0,-0.05494 0.20836,-0.2633 0.463021,-0.463021 0.419645,-0.329107 0.429003,-0.319749 0.0999,0.0999 -0.345644,0.44073 -0.562917,0.580887 -0.562917,0.363125 z M 97.525115,8.5894479 c 0.0011,-1.1641666 0.04748,-1.6075051 0.10337,-0.9851945 0.05589,0.6223106 0.0551,1.5748105 -0.0019,2.1166666 -0.05685,0.541856 -0.102581,0.032695 -0.101621,-1.1314721 z M 270.01842,7.2665313 c 0.003,-0.7276041 0.0534,-0.993857 0.11419,-0.5916744 0.0608,0.4021825 0.0592,0.997495 -0.004,1.3229166 -0.0628,0.3254216 -0.11255,-0.00365 -0.11057,-0.7312422 z M 106.62868,4.8238425 c 0.61847,-0.055703 1.6305,-0.055703 2.24896,0 0.61847,0.055705 0.11245,0.1012825 -1.12448,0.1012825 -1.23692,0 -1.74294,-0.045577 -1.12448,-0.1012825 z m 173.1698,0.00423 c 0.40018,-0.060624 1.05502,-0.060624 1.45521,0 0.40018,0.060621 0.0728,0.1102228 -0.72761,0.1102228 -0.80036,0 -1.12778,-0.049601 -0.7276,-0.1102228 z M 162.22357,4.2899689 c -0.32909,-0.419645 -0.31975,-0.4290033 0.0999,-0.099896 0.25466,0.1997208 0.46302,0.4080801 0.46302,0.4630208 0,0.2177627 -0.21728,0.077605 -0.56293,-0.3631247 z m 57.42832,-1.8520833 -0.64143,-0.7276041 0.7276,0.6414331 c 0.40018,0.3527882 0.72761,0.6802101 0.72761,0.7276041 0,0.2075058 -0.21426,0.038623 -0.81378,-0.6414331 z m -267.772063,0 c -0.329107,-0.4196439 -0.319749,-0.4290022 0.0999,-0.099895 0.44073,0.3456434 0.580888,0.5629156 0.363125,0.5629156 -0.05494,0 -0.2633,-0.2083594 -0.463021,-0.4630209 z M -53.04736,0.6018557 c 0.254661,-0.0665499 0.67138,-0.0665499 0.926042,0 0.254661,0.0665501 0.0463,0.12100004 -0.463021,0.12100004 -0.509323,0 -0.717682,-0.0544499 -0.463021,-0.12100004 z m 267.75834,0 c 0.25466,-0.0665499 0.67138,-0.0665499 0.92604,0 0.25466,0.0665501 0.0463,0.12100004 -0.46302,0.12100004 -0.50932,0 -0.71768,-0.0544499 -0.46302,-0.12100004 z M -19.955948,-0.47236768 c 3.757332,-0.0414247 9.829519,-0.0413869 13.4937498,8.414e-5 3.6642279,0.0414708 0.5900473,0.0753639 -6.8315158,0.0753176 -7.421562,-4.604e-5 -10.419569,-0.0339767 -6.662234,-0.0754017 z m 166.536718,0.0115491 c 0.32742,-0.0630642 0.8632,-0.0630642 1.19062,0 0.32743,0.0630642 0.0595,0.11466222 -0.59531,0.11466222 -0.65484,0 -0.92273,-0.051598 -0.59531,-0.11466222 z"
         id="path6045" /><path
         style="fill:#f7b18b;stroke-width:0.264583"
         d="m 72.23285,49.292343 c 0.181901,-0.0734 0.479558,-0.0734 0.661459,0 0.181901,0.0734 0.03307,0.133453 -0.330729,0.133453 -0.363802,0 -0.512631,-0.06005 -0.33073,-0.133453 z m 37.83542,-0.264583 c 0.1819,-0.0734 0.47956,-0.0734 0.66146,0 0.1819,0.0734 0.0331,0.133453 -0.33073,0.133453 -0.36381,0 -0.51263,-0.06005 -0.33073,-0.133453 z M -10.701035,37.8933 c 1.2804538,-0.04861 3.3045163,-0.04836 4.4979168,5.29e-4 1.1934032,0.04891 0.145759,0.08868 -2.3280952,0.08837 -2.4738546,-2.65e-4 -3.4502726,-0.04032 -2.1698216,-0.08893 z m 8.1229467,-0.435962 c 0,-0.05719 0.184777,-0.17489 0.4106174,-0.261554 0.235458,-0.09035 0.3416618,-0.046 0.2489677,0.103984 -0.1553792,0.25141 -0.6595851,0.371859 -0.6595851,0.15757 z m 1.58668244,-1.152787 c 0.34622317,-0.472943 0.67082724,-0.859896 0.72134149,-0.859896 0.20092723,0 -0.45508599,0.992331 -0.88894443,1.344676 -0.2858215,0.232122 -0.2219299,0.04732 0.16760294,-0.48478 z M 0.11932557,33.46028 c 0.005397,-0.436562 0.0646906,-0.583125 0.13177309,-0.325694 0.0670825,0.257432 0.0626719,0.614619 -0.009816,0.79375 -0.0724773,0.179131 -0.12736248,-0.03149 -0.12197027,-0.468056 z m -0.6960288,-2.435984 c -0.14358408,-0.377084 -0.11319404,-0.407474 0.14811375,-0.148114 0.18082155,0.179478 0.26211478,0.39297 0.18065222,0.474433 -0.0814626,0.08146 -0.22940699,-0.06538 -0.32876597,-0.326319 z M -1.519755,29.864765 c -0.5698516,-0.466111 -0.5810514,-0.501743 -0.080881,-0.257278 0.3193177,0.15607 0.65376431,0.402188 0.74321729,0.546925 0.23880763,0.386398 0.0784251,0.316259 -0.66233629,-0.289647 z m -9.314,-1.231741 c 1.2074576,-0.04914 3.1124576,-0.04886 4.2333332,5.29e-4 1.1208782,0.04947 0.1329584,0.08967 -2.195375,0.08934 -2.3283332,-2.64e-4 -3.2454132,-0.04081 -2.0379582,-0.08995 z m 51.084417,-4.763889 c -0.329107,-0.419645 -0.319749,-0.429003 0.0999,-0.0999 0.44073,0.345644 0.580888,0.562917 0.363125,0.562917 -0.05494,0 -0.2633,-0.20836 -0.463021,-0.463021 z m 52.263769,-3.902604 c 2.64e-4,-2.328333 0.04081,-3.245414 0.08995,-2.037958 0.04914,1.207457 0.04886,3.112457 -5.29e-4,4.233333 -0.04947,1.120878 -0.08967,0.132958 -0.08934,-2.195375 z M 9.3281619,21.074365 c 0,-0.04554 0.3869531,-0.432488 0.8598961,-0.859896 l 0.859896,-0.777105 -0.777106,0.859896 C 9.5464775,21.098805 9.3281619,21.278772 9.3281619,21.074365 Z M 23.747954,20.098823 c 0.26339,-0.291042 0.538422,-0.529167 0.611182,-0.529167 0.07276,0 -0.08321,0.238125 -0.346599,0.529167 -0.26339,0.291041 -0.538422,0.529166 -0.611182,0.529166 -0.07276,0 0.08321,-0.238125 0.346599,-0.529166 z m -36.5383,-5.820834 c 0,-2.255572 0.04058,-3.178307 0.09018,-2.05052 0.0496,1.127786 0.0496,2.973255 0,4.101041 -0.0496,1.127787 -0.09018,0.205052 -0.09018,-2.050521 z M 97.495797,11.367573 c 0,-0.509323 0.05445,-0.717682 0.121002,-0.463021 0.06655,0.254661 0.06655,0.67138 0,0.926042 -0.06655,0.254661 -0.121002,0.0463 -0.121002,-0.463021 z m 113.022853,0.198437 -0.50403,-0.595312 0.59532,0.504028 c 0.55943,0.473663 0.71575,0.686597 0.50403,0.686597 -0.0502,0 -0.31811,-0.267891 -0.59532,-0.595313 z M -57.214548,2.6363231 c 0.263391,-0.2910416 0.538422,-0.5291666 0.611183,-0.5291666 0.07276,0 -0.08321,0.238125 -0.346599,0.5291666 -0.26339,0.2910417 -0.538422,0.5291667 -0.611182,0.5291667 -0.07276,0 0.08321,-0.238125 0.346598,-0.5291667 z m 267.758338,0 c 0.26339,-0.2910416 0.53843,-0.5291666 0.61119,-0.5291666 0.0728,0 -0.0832,0.238125 -0.34661,0.5291666 -0.26339,0.2910417 -0.53842,0.5291667 -0.61118,0.5291667 -0.0728,0 0.0832,-0.238125 0.3466,-0.5291667 z"
         id="path6043" /><path
         style="fill:#f59f6e;stroke-width:0.264583"
         d="m 36.5141,49.280847 c 0.327422,-0.06307 0.863203,-0.06307 1.190625,0 0.327422,0.06306 0.05953,0.114663 -0.595313,0.114663 -0.654843,0 -0.922734,-0.0516 -0.595312,-0.114663 z m 37.044752,-5.29e-4 c 0.329118,-0.06329 0.805368,-0.06088 1.058334,0.0053 0.252965,0.06622 -0.01633,0.118004 -0.598398,0.115067 -0.582083,-0.0029 -0.789054,-0.05712 -0.459936,-0.120407 z M 40.499386,49.022249 c 0.190995,-0.07643 0.419201,-0.06703 0.507119,0.02087 0.08792,0.08792 -0.06835,0.150453 -0.347265,0.138965 -0.308227,-0.0127 -0.37092,-0.07539 -0.159854,-0.159851 z m 29.368751,0 c 0.190995,-0.07643 0.4192,-0.06703 0.507119,0.02087 0.08792,0.08792 -0.06835,0.150453 -0.347266,0.138965 -0.308226,-0.0127 -0.370919,-0.07539 -0.159853,-0.159851 z m 7.672917,0 c 0.190994,-0.07643 0.4192,-0.06703 0.507119,0.02087 0.08792,0.08792 -0.06835,0.150453 -0.347266,0.138965 -0.308226,-0.0127 -0.370919,-0.07539 -0.159853,-0.159851 z m 30.942796,-0.0064 c 0.32912,-0.06329 0.80537,-0.06088 1.05834,0.0053 0.25296,0.06622 -0.0163,0.118005 -0.5984,0.115068 -0.58208,-0.0029 -0.78906,-0.05712 -0.45994,-0.120407 z m -2.89696,-0.258194 c 0.19099,-0.07643 0.4192,-0.06703 0.50712,0.02088 0.0879,0.08792 -0.0684,0.150452 -0.34727,0.138964 -0.30823,-0.0127 -0.37092,-0.07539 -0.15985,-0.15985 z m 7.14375,0 c 0.19099,-0.07643 0.4192,-0.06703 0.50712,0.02088 0.0879,0.08792 -0.0684,0.150452 -0.34727,0.138964 -0.30823,-0.0127 -0.37092,-0.07539 -0.15985,-0.15985 z M -26.528267,24.199864 c 1.3e-5,-13.533437 0.03218,-19.0310683 0.07148,-12.21696 0.0393,6.81411 0.03929,17.886922 -2.9e-5,24.606249 -0.03931,6.719329 -0.07147,1.144148 -0.07145,-12.389289 z m 25.87344289,24.290604 c 0.25743166,-0.06708 0.61461916,-0.06267 0.79375002,0.0098 0.17913086,0.07248 -0.0314934,0.127362 -0.46805586,0.12197 -0.43656251,-0.0054 -0.58312581,-0.06469 -0.32569416,-0.131773 z M 2.3993857,48.228499 c 0.1909948,-0.07643 0.4192006,-0.06703 0.507119,0.02088 0.087918,0.08792 -0.068353,0.150453 -0.3472657,0.138965 -0.3082263,-0.0127 -0.3709193,-0.07539 -0.1598533,-0.159851 z M 101.80191,47.618518 c -0.0927,-0.149982 0.0135,-0.194337 0.24897,-0.103984 0.45837,0.175892 0.54223,0.365538 0.16165,0.365538 -0.13693,0 -0.32171,-0.1177 -0.41062,-0.261554 z M 84.734413,46.972649 c 0,-0.07276 0.238125,-0.259734 0.529167,-0.415494 0.291041,-0.15576 0.529166,-0.223671 0.529166,-0.15091 0,0.07276 -0.238125,0.259733 -0.529166,0.415493 -0.291042,0.155761 -0.529167,0.223671 -0.529167,0.150911 z m 15.188404,-0.746223 -0.504029,-0.595313 0.595312,0.504029 c 0.32742,0.277214 0.59531,0.545105 0.59531,0.595312 0,0.211733 -0.21293,0.05542 -0.686593,-0.504028 z M 25.433995,45.829551 c -0.329107,-0.419645 -0.319749,-0.429004 0.0999,-0.0999 0.254662,0.19972 0.463021,0.40808 0.463021,0.463021 0,0.217762 -0.217273,0.0776 -0.562917,-0.363125 z m 23.052501,0.363125 c 0,-0.05494 0.208359,-0.263301 0.463021,-0.463021 0.419645,-0.329108 0.429003,-0.319749 0.0999,0.0999 -0.345644,0.44073 -0.562917,0.580887 -0.562917,0.363125 z m 37.570834,0 c 0,-0.05494 0.208359,-0.263301 0.463021,-0.463021 0.419645,-0.329108 0.429003,-0.319749 0.0999,0.0999 -0.345644,0.44073 -0.562917,0.580887 -0.562917,0.363125 z m -25.544741,-1.289167 -1.045885,-1.124479 1.12448,1.045885 c 1.045755,0.972661 1.246063,1.203073 1.045884,1.203073 -0.04323,0 -0.549243,-0.506015 -1.124479,-1.124479 z M 9.8573285,45.680614 c 0,-0.04554 0.3869535,-0.432488 0.8598955,-0.859896 l 0.859896,-0.777105 -0.777105,0.859896 c -0.724371,0.801545 -0.9426865,0.981512 -0.9426865,0.777105 z m 13.6160965,-1.570855 -1.312971,-1.389062 1.389062,1.312971 c 1.290741,1.220036 1.510401,1.465154 1.312971,1.465154 -0.04185,0 -0.66693,-0.625078 -1.389062,-1.389063 z m 26.997446,0.330729 c 0.568388,-0.582083 1.092967,-1.058333 1.165728,-1.058333 0.07276,0 -0.332756,0.47625 -0.901145,1.058333 -0.568388,0.582084 -1.092967,1.058334 -1.165727,1.058334 -0.07276,0 0.332755,-0.47625 0.901144,-1.058334 z m 37.173959,0.396875 c 0.341775,-0.363802 0.680939,-0.661458 0.7537,-0.661458 0.07276,0 -0.147341,0.297656 -0.489117,0.661458 -0.341775,0.363802 -0.680939,0.661459 -0.7537,0.661459 -0.07276,0 0.147341,-0.297657 0.489117,-0.661459 z m 10.969329,-0.414477 c -0.09592,-0.155202 -0.117655,-0.338932 -0.0483,-0.408287 0.06935,-0.06935 0.196601,0.05763 0.282773,0.282186 0.178906,0.466225 0.02641,0.548233 -0.234473,0.126101 z M 88.43858,43.811426 c 0,-0.05494 0.208359,-0.2633 0.463021,-0.463021 0.419645,-0.329107 0.429003,-0.319749 0.0999,0.0999 -0.345644,0.44073 -0.562917,0.580887 -0.562917,0.363125 z M 59.036079,43.183718 c -0.329107,-0.419645 -0.319749,-0.429004 0.0999,-0.0999 0.44073,0.345643 0.580888,0.562916 0.363125,0.562916 -0.05494,0 -0.2633,-0.208359 -0.463021,-0.46302 z m -7.374583,-0.166042 c 0,-0.05494 0.208359,-0.2633 0.463021,-0.463021 0.419645,-0.329107 0.429003,-0.319749 0.0999,0.0999 -0.345644,0.44073 -0.562917,0.580887 -0.562917,0.363125 z m -29.824326,-0.76 c -0.396658,-0.512879 -0.646176,-0.992188 -0.516512,-0.992188 0.06461,0 0.31251,0.297657 0.550881,0.661459 0.446046,0.680749 0.421204,0.919784 -0.03437,0.330729 z M 57.999368,41.50741 c -0.162431,-0.303503 -0.245491,-0.601662 -0.184579,-0.662575 0.06091,-0.06091 0.246599,0.18741 0.412639,0.551826 0.364614,0.800243 0.187084,0.886455 -0.22806,0.110749 z m 14.233482,0.112017 c 0.181901,-0.0734 0.479558,-0.0734 0.661459,0 0.181901,0.0734 0.03307,0.133453 -0.330729,0.133453 -0.363802,0 -0.512631,-0.06005 -0.33073,-0.133453 z m 3.720704,-0.0055 c 0.190994,-0.07643 0.4192,-0.06703 0.507119,0.02088 0.08792,0.08792 -0.06835,0.150453 -0.347266,0.138965 -0.308226,-0.0127 -0.370919,-0.07539 -0.159853,-0.159851 z m -39.174871,-0.53516 c 0.327422,-0.06307 0.863203,-0.06307 1.190625,0 0.327422,0.06306 0.05953,0.114663 -0.595312,0.114663 -0.654844,0 -0.922735,-0.0516 -0.595313,-0.114663 z M 20.705245,40.471739 c -0.15576,-0.291042 -0.22367,-0.529167 -0.15091,-0.529167 0.07276,0 0.259734,0.238125 0.415494,0.529167 0.15576,0.291041 0.223671,0.529166 0.15091,0.529166 -0.07276,0 -0.259733,-0.238125 -0.415494,-0.529166 z m 12.944558,-0.463021 -0.641432,-0.727604 0.79375,0.661458 c 0.436562,0.363802 0.843359,0.691224 0.903994,0.727604 0.06063,0.03638 -0.0079,0.06615 -0.152318,0.06615 -0.144407,0 -0.551204,-0.327422 -0.903994,-0.727604 z m 7.428359,-0.198438 c 0.341776,-0.363802 0.68094,-0.661458 0.7537,-0.661458 0.07276,0 -0.147341,0.297656 -0.489116,0.661458 -0.341776,0.363802 -0.68094,0.661459 -0.7537,0.661459 -0.07276,0 0.147341,-0.297657 0.489116,-0.661459 z m 16.139584,-0.132291 c 0,-0.145521 0.12609,-0.264584 0.280199,-0.264584 0.154109,0 0.206613,0.119063 0.116676,0.264584 -0.08994,0.14552 -0.216027,0.264583 -0.280199,0.264583 -0.06417,0 -0.116676,-0.119063 -0.116676,-0.264583 z m 57.100394,0.08384 c 0.19099,-0.07643 0.4192,-0.06703 0.50712,0.02088 0.0879,0.08792 -0.0684,0.150453 -0.34727,0.138964 -0.30823,-0.0127 -0.37092,-0.07539 -0.15985,-0.15985 z m -3.95289,-0.546864 c -0.33589,-0.428297 -0.32344,-0.433912 0.16604,-0.07487 0.29104,0.213484 0.57877,0.421843 0.63941,0.46302 0.0606,0.04118 -0.0141,0.07487 -0.16604,0.07487 -0.15196,0 -0.43969,-0.20836 -0.63941,-0.46302 z M 61.136887,38.968082 c 0.190994,-0.07643 0.4192,-0.06703 0.507119,0.02088 0.08792,0.08792 -0.06835,0.150453 -0.347266,0.138964 -0.308226,-0.0127 -0.370919,-0.07539 -0.159853,-0.15985 z M 78.796864,38.47895 c -0.282474,-0.213654 -0.38635,-0.388461 -0.230833,-0.388461 0.155514,0 0.430974,0.178593 0.612132,0.396875 0.412009,0.496443 0.2824,0.493582 -0.381299,-0.0084 z M 65.105637,38.43892 c 0.190995,-0.07643 0.4192,-0.06703 0.507119,0.02088 0.08792,0.08792 -0.06835,0.150453 -0.347266,0.138965 -0.308226,-0.0127 -0.370919,-0.07539 -0.159853,-0.159851 z m 25.521671,-0.877594 c 0,-0.654844 0.0516,-0.922734 0.114663,-0.595313 0.06307,0.327422 0.06307,0.863204 0,1.190625 -0.06306,0.327422 -0.114663,0.05953 -0.114663,-0.595312 z m -39.296541,0.08936 c 0.181901,-0.0734 0.479557,-0.0734 0.661458,0 0.181901,0.0734 0.03307,0.133453 -0.330729,0.133453 -0.363802,0 -0.51263,-0.06005 -0.330729,-0.133453 z m -3.96875,-0.264583 c 0.181901,-0.0734 0.479557,-0.0734 0.661458,0 0.181901,0.0734 0.03307,0.133453 -0.330729,0.133453 -0.363802,0 -0.51263,-0.06006 -0.330729,-0.133453 z m 27.797787,-0.0055 c 0.190994,-0.07643 0.4192,-0.06703 0.507119,0.02088 0.08792,0.08792 -0.06835,0.150453 -0.347266,0.138964 -0.308226,-0.0127 -0.370919,-0.07539 -0.159853,-0.15985 z M 43.393267,37.12151 c 0.181901,-0.0734 0.479557,-0.0734 0.661458,0 0.181901,0.0734 0.03307,0.133454 -0.330729,0.133454 -0.363802,0 -0.51263,-0.06006 -0.330729,-0.133454 z m 29.914453,-0.0055 c 0.190995,-0.07643 0.419201,-0.06703 0.507119,0.02088 0.08792,0.08792 -0.06835,0.150452 -0.347265,0.138964 -0.308227,-0.0127 -0.37092,-0.07539 -0.159854,-0.159851 z M 14.376134,36.613241 c 0.0127,-0.308227 0.07539,-0.37092 0.159851,-0.159854 0.07643,0.190995 0.06703,0.419198 -0.02088,0.507119 -0.08792,0.08792 -0.150452,-0.06835 -0.138964,-0.347265 z m 17.757775,-1.300869 c 0.0054,-0.436563 0.06469,-0.583126 0.131774,-0.325695 0.06708,0.257432 0.06267,0.61462 -0.0098,0.79375 -0.07248,0.179131 -0.127362,-0.03149 -0.12197,-0.468055 z M 18.874051,34.231991 c 0.0127,-0.308227 0.07539,-0.37092 0.159851,-0.159854 0.07643,0.190995 0.06703,0.419198 -0.02088,0.507119 -0.08792,0.08792 -0.150453,-0.06835 -0.138965,-0.347265 z m 35.517963,-1.168586 c 0,-0.945885 0.04802,-1.332838 0.106715,-0.859895 0.05869,0.472942 0.05869,1.246849 0,1.719791 -0.05869,0.472943 -0.106715,0.08599 -0.106715,-0.859896 z m 7.025315,0.06615 c -0.329107,-0.419645 -0.319749,-0.429003 0.0999,-0.0999 0.44073,0.345644 0.580888,0.562917 0.363125,0.562917 -0.05494,0 -0.2633,-0.208359 -0.463021,-0.463021 z M 14.376134,32.909066 c 0.0127,-0.308226 0.07539,-0.370919 0.159851,-0.159853 0.07643,0.190994 0.06703,0.419198 -0.02088,0.507119 -0.08792,0.08792 -0.150452,-0.06835 -0.138964,-0.347266 z m 74.835765,-0.148421 c -0.166997,-0.312036 -0.79161,-1.115708 -1.388026,-1.785937 l -1.084394,-1.218594 1.054285,0.987443 c 0.975519,0.91367 2.177767,2.584432 1.859708,2.584432 -0.07587,0 -0.274576,-0.255305 -0.441573,-0.567344 z m -28.58832,-0.689427 c -0.329107,-0.419645 -0.319749,-0.429003 0.0999,-0.0999 0.44073,0.345644 0.580888,0.562917 0.363125,0.562917 -0.05494,0 -0.2633,-0.20836 -0.463021,-0.463021 z M 18.874051,31.056983 c 0.0127,-0.308227 0.07539,-0.37092 0.159851,-0.159854 0.07643,0.190995 0.06703,0.419198 -0.02088,0.507119 -0.08792,0.08792 -0.150453,-0.06835 -0.138965,-0.347265 z m 40.846357,-0.39243 c -0.09592,-0.155202 -0.117655,-0.338931 -0.0483,-0.408287 0.06935,-0.06936 0.196602,0.05763 0.282774,0.282186 0.178906,0.466225 0.02641,0.548233 -0.234474,0.126101 z M 12.502344,27.970176 c -0.389532,-0.532103 -0.453424,-0.716901 -0.167603,-0.48478 0.433859,0.352346 1.089872,1.344676 0.888945,1.344676 -0.05051,0 -0.375118,-0.386953 -0.721342,-0.859896 z m 19.600874,-0.61736 c 0.0127,-0.308226 0.07539,-0.370919 0.15985,-0.159853 0.07643,0.190995 0.06703,0.419198 -0.02087,0.507119 -0.08792,0.08792 -0.150453,-0.06835 -0.138965,-0.347266 z m 47.025336,-0.02641 c 0.190994,-0.07643 0.4192,-0.06703 0.507119,0.02088 0.08792,0.08792 -0.06835,0.150453 -0.347266,0.138965 -0.308226,-0.0127 -0.370919,-0.07539 -0.159853,-0.159851 z M 75.68897,26.797244 c 0.190995,-0.07643 0.419201,-0.06703 0.507119,0.02088 0.08792,0.08792 -0.06835,0.150452 -0.347265,0.138964 -0.308227,-0.0127 -0.37092,-0.07539 -0.159854,-0.15985 z m -2.38125,-0.264583 c 0.190995,-0.07643 0.419201,-0.06703 0.507119,0.02088 0.08792,0.08792 -0.06835,0.150453 -0.347265,0.138965 -0.308227,-0.0127 -0.37092,-0.07539 -0.159854,-0.159851 z M 10.493649,25.85351 9.9896202,25.258197 10.584933,25.762226 c 0.327422,0.277214 0.595312,0.545105 0.595312,0.595312 0,0.211733 -0.212934,0.05542 -0.686596,-0.504028 z M 8.6511275,24.714434 c -0.4931886,-0.395126 -0.4899448,-0.400011 0.081722,-0.122981 0.3274218,0.158668 0.5953125,0.343828 0.5953125,0.411469 0,0.202465 -0.1372156,0.143997 -0.6770345,-0.288488 z M 69.42461,24.417505 c -0.03561,-0.569391 1.056596,-1.67386 1.653297,-1.67186 0.162277,5.29e-4 -0.08266,0.231296 -0.544298,0.512781 -0.461642,0.281485 -0.891911,0.787056 -0.956157,1.12349 -0.112286,0.588018 -0.118205,0.589394 -0.152842,0.03559 z m 9.455219,0.0041 c -0.199718,-0.241864 -0.720312,-0.658138 -1.156874,-0.925052 -0.436563,-0.266915 -0.643173,-0.485746 -0.459134,-0.486289 0.332409,-0.0011 2.462799,1.83024 2.145175,1.843934 -0.09132,0.0039 -0.329446,-0.19073 -0.529167,-0.432593 z M 33.140662,23.967676 c 0,-0.05494 0.20836,-0.2633 0.463021,-0.46302 0.419645,-0.329108 0.429003,-0.319749 0.0999,0.0999 -0.345644,0.440729 -0.562917,0.580887 -0.562917,0.363124 z m 55.694793,-0.42927 c 0.08994,-0.145521 0.216027,-0.264584 0.280199,-0.264584 0.06417,0 0.116676,0.119063 0.116676,0.264584 0,0.145521 -0.12609,0.264583 -0.280199,0.264583 -0.154109,0 -0.206613,-0.119062 -0.116676,-0.264583 z M 5.2384205,23.292105 c -0.1759426,-0.284678 0.3419157,-0.679304 0.5795671,-0.441653 0.087331,0.08733 0.012859,0.158787 -0.1655101,0.158787 -0.1783635,0 -0.2507112,0.119063 -0.160774,0.264583 0.089937,0.145521 0.1039892,0.264584 0.031229,0.264584 -0.07276,0 -0.2007896,-0.110837 -0.284512,-0.246301 z M 21.763579,22.64476 c 0,-0.05494 0.208359,-0.2633 0.463021,-0.463021 0.419645,-0.329107 0.429003,-0.319749 0.0999,0.0999 -0.345644,0.44073 -0.562917,0.580887 -0.562917,0.363125 z m 53.396225,-0.08084 c 0.190994,-0.07643 0.4192,-0.06703 0.507119,0.02088 0.08792,0.08792 -0.06835,0.150453 -0.347266,0.138964 -0.308226,-0.0127 -0.370919,-0.07539 -0.159853,-0.15985 z M 24.012537,20.098823 c 0.864016,-0.873125 1.630466,-1.5875 1.703226,-1.5875 0.07276,0 -0.574627,0.714375 -1.438643,1.5875 -0.864015,0.873125 -1.630465,1.587499 -1.703226,1.587499 -0.07276,0 0.574628,-0.714374 1.438643,-1.587499 z m 25.523254,0.06614 -1.44617,-1.521354 1.521354,1.44617 c 1.413386,1.343539 1.642557,1.596538 1.44617,1.596538 -0.04135,0 -0.725961,-0.684609 -1.521354,-1.521354 z M 9.3281619,20.760281 c 0.3417755,-0.363802 0.6809391,-0.661458 0.7537001,-0.661458 0.07276,0 -0.1473413,0.297656 -0.4891168,0.661458 -0.3417755,0.363802 -0.6809396,0.661458 -0.7537,0.661458 -0.07276,0 0.1473411,-0.297656 0.4891167,-0.661458 z m 51.0083891,0.264583 c 0.154038,-0.291041 0.850993,-1.064948 1.548789,-1.719791 l 1.268722,-1.190625 -1.431203,1.5875 c -0.787161,0.873125 -1.484116,1.647031 -1.548788,1.719791 -0.06467,0.07276 0.0084,-0.105833 0.16248,-0.396875 z m 25.836426,-1.785937 -0.777106,-0.859896 0.859896,0.777105 c 0.472943,0.427408 0.859896,0.814361 0.859896,0.859896 0,0.204406 -0.218315,0.02445 -0.942686,-0.777105 z M 10.651079,19.46976 c 0,-0.05494 0.208359,-0.2633 0.46302,-0.463021 0.419645,-0.329107 0.429004,-0.319749 0.0999,0.0999 -0.345643,0.44073 -0.562916,0.580887 -0.562916,0.363125 z m 36.743333,-1.156875 c -0.329107,-0.419645 -0.319749,-0.429003 0.0999,-0.0999 0.44073,0.345644 0.580888,0.562917 0.363125,0.562917 -0.05494,0 -0.2633,-0.208359 -0.463021,-0.463021 z M 11.893403,17.588604 c 0.242009,-0.507497 0.486987,-0.875747 0.544396,-0.818338 0.121037,0.121037 -0.682149,1.741057 -0.863192,1.741057 -0.06667,0 0.07679,-0.415224 0.318796,-0.922719 z m 72.80726,0.459698 c -0.329107,-0.419645 -0.319749,-0.429004 0.0999,-0.0999 0.44073,0.345643 0.580887,0.562917 0.363125,0.562917 -0.05494,0 -0.2633,-0.20836 -0.463021,-0.463021 z M 45.576079,17.320698 c -0.654844,-0.35065 -1.096584,-0.642927 -0.981646,-0.649502 0.280974,-0.01609 2.304563,1.023609 2.304563,1.184045 0,0.175283 0.01098,0.17972 -1.322917,-0.534543 z m 19.244027,-0.165124 c 0.179478,-0.180822 0.39297,-0.262115 0.474433,-0.180652 0.08146,0.08146 -0.06538,0.229407 -0.326319,0.328766 -0.377084,0.143584 -0.407474,0.113194 -0.148114,-0.148114 z m 18.062224,-0.09946 c -0.363802,-0.207967 -0.535387,-0.382344 -0.381299,-0.387498 0.154088,-0.0052 0.511275,0.165431 0.79375,0.379085 0.653251,0.494093 0.4446,0.49835 -0.412451,0.0084 z M 39.97022,15.420167 c 0.190994,-0.07643 0.4192,-0.06703 0.507119,0.02088 0.08792,0.08792 -0.06835,0.150453 -0.347266,0.138965 -0.308226,-0.0127 -0.370919,-0.07539 -0.159853,-0.159851 z m 37.570834,0 c 0.190994,-0.07643 0.4192,-0.06703 0.507119,0.02088 0.08792,0.08792 -0.06835,0.150453 -0.347266,0.138965 -0.308226,-0.0127 -0.370919,-0.07539 -0.159853,-0.159851 z m 19.98018,-1.539053 c 0.0011,-1.018645 0.04899,-1.402942 0.106272,-0.853995 0.05728,0.548949 0.05631,1.382387 -0.0021,1.852083 -0.05845,0.469699 -0.105313,0.02056 -0.104138,-0.998088 z m -61.271718,1.268484 c 0.327422,-0.06307 0.863204,-0.06307 1.190626,0 0.327421,0.06306 0.05953,0.114663 -0.595313,0.114663 -0.654844,0 -0.922734,-0.0516 -0.595313,-0.114663 z m 37.173959,-0.0028 c 0.400183,-0.06062 1.055026,-0.06062 1.455209,0 0.400182,0.06062 0.07276,0.110223 -0.727604,0.110223 -0.800365,0 -1.127787,-0.0496 -0.727605,-0.110223 z M 216.44731,13.303505 c 0.191,-0.07643 0.4192,-0.06703 0.50712,0.02088 0.0879,0.08792 -0.0684,0.150452 -0.34726,0.138964 -0.30824,-0.0127 -0.37092,-0.07539 -0.15986,-0.15985 z M -49.938506,12.851089 c 0,-0.05719 0.184777,-0.17489 0.410618,-0.261554 0.235458,-0.09035 0.341661,-0.046 0.248967,0.103984 -0.155379,0.25141 -0.659585,0.371859 -0.659585,0.15757 z m 267.758336,0 c 0,-0.05719 0.18479,-0.17489 0.41061,-0.261554 0.23548,-0.09035 0.34168,-0.046 0.24897,0.103984 -0.15536,0.25141 -0.65958,0.371859 -0.65958,0.15757 z M -48.880172,12.343115 c 0,-0.04553 0.386953,-0.432488 0.859895,-0.859895 l 0.859896,-0.777105 -0.777105,0.859895 c -0.724371,0.801545 -0.942686,0.981512 -0.942686,0.777105 z m 259.542022,-0.909396 -0.91181,-0.992188 0.99219,0.911799 c 0.9235,0.84868 1.11384,1.072576 0.9118,1.072576 -0.0442,0 -0.49069,-0.446484 -0.99218,-0.992187 z m 9.00932,0.06559 c 0.50893,-0.581777 1.02952,-1.17684 1.15687,-1.322361 0.12737,-0.145521 0.10819,-0.02646 -0.0426,0.264583 -0.15081,0.291042 -0.6714,0.886106 -1.15686,1.322361 l -0.88268,0.793197 z m -276.790367,0.198993 c -0.76119,-0.918938 -1.083699,-1.389062 -0.9529,-1.389062 0.07331,0 0.451131,0.416718 0.839611,0.926041 0.720915,0.945169 0.808212,1.301957 0.113289,0.463021 z m 10.926633,-4.5640624 c 0,-0.363802 0.06005,-0.5126301 0.133453,-0.3307291 0.0734,0.181901 0.0734,0.4795573 0,0.6614583 -0.0734,0.181901 -0.133453,0.033073 -0.133453,-0.3307292 z M 11.747581,6.6712188 C 11.458867,5.9965208 11.4654,5.980958 11.837404,6.4572053 c 0.220647,0.2824745 0.401175,0.6098963 0.401175,0.7276042 0,0.4021428 -0.179475,0.2144077 -0.490998,-0.5135907 z M 10.617328,4.8191356 c -0.329107,-0.4196451 -0.319749,-0.4290034 0.0999,-0.099896 0.44073,0.3456437 0.580888,0.5629169 0.363125,0.5629169 -0.05494,0 -0.2633,-0.2083594 -0.463021,-0.4630208 z m 87.417433,0.2796672 c 0.257432,-0.067082 0.614619,-0.062672 0.79375,0.00979 0.179131,0.072477 -0.03149,0.1273624 -0.468056,0.1219702 C 97.923893,5.225163 97.777329,5.165872 98.034761,5.09879 Z M -58.405173,4.561815 c 0,-0.1536514 0.245192,-0.5604483 0.54487,-0.9039928 l 0.54487,-0.6246241 -0.464791,0.79375 c -0.611733,1.0446887 -0.624949,1.0602304 -0.624949,0.7348669 z M 9.4438086,3.3639273 8.6667035,2.5040315 9.5265994,3.2811368 c 0.8015446,0.7243706 0.9815116,0.9426863 0.7771046,0.9426863 -0.04553,0 -0.4324875,-0.3869531 -0.8598954,-0.8598958 z M 219.82114,2.9583755 c -0.93276,-1.1178751 -0.9511,-1.1652786 -0.17568,-0.454344 0.73461,0.6735196 1.53987,1.739556 1.29254,1.7111159 -0.0415,-0.00476 -0.54409,-0.5703202 -1.11686,-1.2567719 z m -9.14506,-0.1897607 c 0.49366,-0.5093229 0.95708,-0.9260416 1.02984,-0.9260416 0.0728,0 -0.2716,0.4167187 -0.76525,0.9260416 -0.49366,0.5093229 -0.95708,0.9260416 -1.02984,0.9260416 -0.0728,0 0.27159,-0.4167187 0.76525,-0.9260416 z m -258.911439,-0.1984375 -0.777105,-0.8598958 0.859896,0.7771053 c 0.801544,0.7243712 0.981511,0.9426863 0.777105,0.9426863 -0.04553,0 -0.432488,-0.3869531 -0.859896,-0.8598958 z m -1.438563,-0.9921875 c -0.238467,-0.1541092 -0.2711,-0.2580973 -0.08176,-0.2605317 0.173313,-0.00222 0.388699,0.1150109 0.478637,0.2605317 0.203014,0.3284868 0.111421,0.3284868 -0.396875,0 z m 56.6208338,0 C 6.7084455,1.4238806 6.6758118,1.3198925 6.8651503,1.3174581 7.038463,1.3152356 7.2538497,1.432469 7.3437868,1.5779898 c 0.2030148,0.3284868 0.1114214,0.3284868 -0.396875,0 z m 211.1375082,0 c -0.23847,-0.1541092 -0.2711,-0.2580973 -0.0818,-0.2605317 0.1733,-0.00222 0.3887,0.1150109 0.47863,0.2605317 0.20302,0.3284868 0.11142,0.3284868 -0.39687,0 z m -4.28295,-0.70990718 c 0.19101,-0.0764305 0.41921,-0.0670306 0.50713,0.0208888 0.0879,0.0879189 -0.0684,0.15045298 -0.34727,0.13896448 -0.30824,-0.012695 -0.37092,-0.0753906 -0.15986,-0.15985328 z M 1.3410524,-0.19025068 c 0.1909947,-0.0764304 0.4192005,-0.0670306 0.5071189,0.0208889 0.087918,0.08791892 -0.068352,0.15045293 -0.3472656,0.13896446 C 1.1926793,-0.04309208 1.1299863,-0.10578801 1.3410524,-0.19024989 Z"
         id="path6041" /><path
         style="fill:#899da3;stroke-width:0.264583"
         d="m 184.1516,49.276172 c 0.47294,-0.05869 1.24685,-0.05869 1.71979,0 0.47295,0.05869 0.086,0.106714 -0.85989,0.106714 -0.94589,0 -1.33284,-0.04802 -0.8599,-0.106714 z m -2.91041,-0.248412 c 0.1819,-0.0734 0.47955,-0.0734 0.66145,0 0.1819,0.0734 0.0331,0.133453 -0.33073,0.133453 -0.3638,0 -0.51263,-0.06005 -0.33072,-0.133453 z m 6.87916,0 c 0.1819,-0.0734 0.47956,-0.0734 0.66146,0 0.1819,0.0734 0.0331,0.133453 -0.33073,0.133453 -0.3638,0 -0.51263,-0.06005 -0.33073,-0.133453 z m 92.61116,-0.01884 c 0.62232,-0.05589 1.57482,-0.0551 2.11666,0.0019 0.54187,0.05685 0.0327,0.102581 -1.13146,0.101621 -1.16417,-0.0011 -1.6075,-0.04748 -0.9852,-0.10337 z m -376.442933,-6.6851 v -6.614583 h 6.614583 6.614584 v 6.614583 6.614583 h -6.614584 -6.614583 z m 12.964583,0 v -6.35 h -6.35 -6.35 v 6.35 6.35 h 6.35 6.35 z m 5.291667,0 v -6.614583 h 6.614584 6.614583 v 6.614583 6.614583 h -6.614583 -6.614584 z m 12.964584,0 v -6.35 h -6.35 -6.350001 v 6.35 6.35 h 6.350001 6.35 z m 5.291666,0 v -6.614583 h 6.614584 6.614583 v 6.614583 6.614583 h -6.614583 -6.614584 z m 12.964584,0 v -6.35 h -6.35 -6.35 v 6.35 6.35 h 6.35 6.35 z m 226.169149,6.433843 c 0.191,-0.07643 0.4192,-0.06703 0.50712,0.02088 0.0879,0.08792 -0.0684,0.150453 -0.34726,0.138964 -0.30824,-0.0127 -0.37092,-0.07539 -0.15986,-0.15985 z m 9.78958,0 c 0.191,-0.07643 0.4192,-0.06703 0.50713,0.02088 0.0879,0.08792 -0.0684,0.150453 -0.34727,0.138964 -0.30824,-0.0127 -0.37092,-0.07539 -0.15986,-0.15985 z m 88.08971,0.0055 c 0.1819,-0.0734 0.47956,-0.0734 0.66146,0 0.1819,0.0734 0.0331,0.133453 -0.33073,0.133453 -0.3638,0 -0.51263,-0.06005 -0.33073,-0.133453 z m 7.54566,-0.0081 c 0.25744,-0.06708 0.61462,-0.06267 0.79375,0.0098 0.17915,0.07248 -0.0315,0.127363 -0.46805,0.12197 -0.43656,-0.0054 -0.58312,-0.06469 -0.3257,-0.131773 z m -94.57704,-0.261969 c 0.191,-0.07643 0.41921,-0.06703 0.50713,0.02088 0.0879,0.08792 -0.0684,0.150453 -0.34727,0.138965 -0.30824,-0.0127 -0.37092,-0.07539 -0.15986,-0.159851 z m 17.7767,-16.355713 V 15.600906 h 6.61458 6.61458 v 16.536458 16.536458 h -6.61458 -6.61458 z m 12.96458,0 V 15.865489 h -6.35 -6.35 v 16.271875 16.271874 h 6.35 6.35 z m 7.53282,0.132291 c 0,-9.095051 0.0332,-12.815754 0.0738,-8.268228 0.0406,4.547525 0.0406,11.988931 0,16.536457 -0.0406,4.547526 -0.0738,0.826823 -0.0738,-8.268229 z m 58.5634,16.223427 c 0.19101,-0.07643 0.41921,-0.06703 0.50713,0.02088 0.0879,0.08792 -0.0684,0.150452 -0.34726,0.138964 -0.30824,-0.0127 -0.37092,-0.07539 -0.15987,-0.159851 z m -95.72956,-0.348427 c 0.21829,-0.141065 0.51594,-0.256479 0.66146,-0.256479 0.14552,0 0.086,0.115414 -0.13229,0.256479 -0.21828,0.141065 -0.51594,0.256479 -0.66146,0.256479 -0.14552,0 -0.086,-0.115414 0.13229,-0.256479 z m 82.6823,-0.305469 c -1.18295,-0.611034 -2.67835,-1.9328 -3.09684,-2.737239 -0.1514,-0.291042 0.15835,-0.03129 0.68831,0.577231 0.5303,0.608898 1.69413,1.47144 2.58821,1.918229 0.89355,0.446508 1.45679,0.806569 1.25163,0.800137 -0.20513,-0.0064 -0.84923,-0.257694 -1.43131,-0.558358 z m -79.86525,-1.014897 c 2.09902,-1.164138 4.76216,-3.662572 5.81007,-5.450697 0.86894,-1.482744 1.13545,-1.534089 0.31951,-0.06155 -0.93372,1.685018 -3.86702,4.51272 -5.80623,5.597192 -0.95483,0.533963 -1.84367,0.969266 -1.9752,0.967343 -0.13152,-0.0019 0.6118,-0.475451 1.65185,-1.052285 z m -20.0293,-0.220395 c -1.42674,-0.906066 -3.43517,-2.882207 -4.44386,-4.37243 -0.96163,-1.420657 -1.15605,-1.759725 -1.00897,-1.759725 0.0662,0 0.49073,0.577193 0.94343,1.282654 0.97779,1.523781 3.77875,4.276159 4.98795,4.901462 0.47228,0.244232 0.8587,0.500528 0.8587,0.569553 0,0.208301 -0.11408,0.155271 -1.33725,-0.621514 z m 95.95847,-3.099676 c -0.0907,-0.236458 -0.15742,-0.569016 -0.14819,-0.739016 0.009,-0.169997 0.13084,-0.02392 0.27027,0.324636 0.13941,0.348549 0.20611,0.681106 0.1482,0.739016 -0.0579,0.05791 -0.17952,-0.08818 -0.27028,-0.324636 z m -0.40867,-1.599319 c 0.0127,-0.308226 0.0754,-0.370919 0.15986,-0.159853 0.0764,0.190995 0.067,0.419198 -0.0209,0.507119 -0.0879,0.08792 -0.15047,-0.06835 -0.13899,-0.347266 z m -88.01997,-1.499306 -0.50403,-0.595313 0.59531,0.504029 c 0.55943,0.473662 0.71575,0.686596 0.50403,0.686596 -0.0502,0 -0.31811,-0.26789 -0.59531,-0.595312 z m 87.77629,0.06615 c 0,-0.363803 0.0601,-0.512631 0.13345,-0.33073 0.0734,0.181901 0.0734,0.479558 0,0.661459 -0.0734,0.181901 -0.13345,0.03307 -0.13345,-0.330729 z m 14.19611,-0.709907 c 0.191,-0.07643 0.41921,-0.06703 0.50713,0.02088 0.0879,0.08792 -0.0684,0.150453 -0.34727,0.138964 -0.30824,-0.0127 -0.37092,-0.07539 -0.15986,-0.15985 z m 2.36471,0.0055 c 0.18191,-0.0734 0.47956,-0.0734 0.66146,0 0.1819,0.0734 0.0331,0.133453 -0.33073,0.133453 -0.3638,0 -0.51263,-0.06006 -0.33073,-0.133453 z m -3.67178,-0.552368 c -0.33589,-0.428297 -0.32342,-0.433912 0.16605,-0.07487 0.29105,0.213484 0.57878,0.421843 0.63942,0.46302 0.0606,0.04118 -0.014,0.07487 -0.16605,0.07487 -0.15195,0 -0.43968,-0.20836 -0.63942,-0.46302 z m 5.25928,0.287792 c 0.18191,-0.0734 0.47956,-0.0734 0.66146,0 0.1819,0.0734 0.0331,0.133453 -0.33073,0.133453 -0.3638,0 -0.51263,-0.06005 -0.33073,-0.133453 z m -86.44451,-0.221646 c 0,-0.145521 0.11542,-0.443178 0.25649,-0.661459 0.14108,-0.218281 0.25649,-0.277812 0.25649,-0.132291 0,0.14552 -0.11541,0.443177 -0.25649,0.661458 -0.14107,0.218281 -0.25649,0.277812 -0.25649,0.132292 z m -33.44521,-0.539396 c -0.25529,-0.665345 -0.17999,-0.837022 0.13192,-0.300657 0.15444,0.265576 0.22506,0.538602 0.15693,0.606724 -0.0681,0.06812 -0.1981,-0.06961 -0.28885,-0.306067 z m -0.67326,-2.128485 c 0.0127,-0.308227 0.0754,-0.37092 0.15986,-0.159854 0.0764,0.190995 0.0671,0.419198 -0.0209,0.507119 -0.0879,0.08792 -0.15047,-0.06835 -0.13898,-0.347265 z m 114.65812,-6.195661 c 0,-3.56526 0.0375,-5.023776 0.0832,-3.241146 0.0458,1.782631 0.0458,4.699662 0,6.482292 -0.0458,1.78263 -0.0832,0.324114 -0.0832,-3.241146 z M 180.79904,35.8195 c 0.0127,-0.308227 0.0754,-0.37092 0.15986,-0.159854 0.0764,0.190995 0.067,0.419198 -0.0209,0.507119 -0.0879,0.08792 -0.15047,-0.06835 -0.13899,-0.347265 z m 21.96042,0 c 0.0127,-0.308227 0.0754,-0.37092 0.15986,-0.159854 0.0764,0.190995 0.067,0.419198 -0.0209,0.507119 -0.0879,0.08792 -0.15047,-0.06835 -0.13899,-0.347265 z m -35.43327,-0.374828 c 0,-0.363802 0.0601,-0.51263 0.13346,-0.330729 0.0734,0.181901 0.0734,0.479557 0,0.661459 -0.0734,0.181901 -0.13346,0.03307 -0.13346,-0.33073 z m 35.72854,-1.190625 c 0.005,-0.436562 0.0647,-0.583125 0.13179,-0.325694 0.0671,0.257432 0.0627,0.614619 -0.01,0.79375 -0.0725,0.179131 -0.12734,-0.03149 -0.12197,-0.468056 z m -35.94809,-1.852083 c 0,-1.018646 0.049,-1.402942 0.10628,-0.853995 0.0573,0.548949 0.0563,1.382387 -0.003,1.852083 -0.0585,0.469699 -0.10531,0.02056 -0.10414,-0.998088 z m 22.4695,-0.79375 c 0.003,-0.582083 0.0571,-0.789053 0.12041,-0.459936 0.0633,0.329118 0.0609,0.805368 -0.005,1.058334 -0.0662,0.252965 -0.118,-0.01633 -0.11506,-0.598398 z M -95.711423,24.596739 v -6.614583 h 6.614583 6.614584 v 6.614583 6.614583 h -6.614584 -6.614583 z m 12.964583,0 v -6.35 h -6.35 -6.35 v 6.35 6.35 h 6.35 6.35 z m 5.291667,0 v -6.614583 h 6.614584 6.614583 v 6.614583 6.614583 h -6.614583 -6.614584 z m 12.964584,0 v -6.35 h -6.35 -6.350001 v 6.35 6.35 h 6.350001 6.35 z m 5.291666,0 v -6.614583 h 6.614584 6.614583 v 6.614583 6.614583 h -6.614583 -6.614584 z m 12.964584,0 v -6.35 h -6.35 -6.35 v 6.35 6.35 h 6.35 6.35 z m 197.842189,5.910188 c 0.1819,-0.0734 0.47956,-0.0734 0.66146,0 0.1819,0.0734 0.0331,0.133453 -0.33073,0.133453 -0.3638,0 -0.51263,-0.06006 -0.33073,-0.133453 z m 51.44688,-0.48623 c 0.005,-0.436562 0.0647,-0.583126 0.13179,-0.325694 0.0671,0.257432 0.0627,0.614619 -0.01,0.79375 -0.0725,0.179131 -0.12734,-0.03149 -0.12197,-0.468056 z m -49.57826,0.216136 c 0.191,-0.07643 0.4192,-0.06703 0.50712,0.02088 0.0879,0.08792 -0.0683,0.150453 -0.34727,0.138965 -0.30822,-0.0127 -0.37091,-0.07539 -0.15985,-0.159851 z m 3.07667,-0.883568 c 0.719,-0.280715 1.34902,-0.468644 1.40004,-0.417619 0.12625,0.126249 -1.97509,0.955858 -2.38193,0.940385 -0.17896,-0.0068 0.26289,-0.242051 0.98189,-0.522766 z m 10.77305,-0.258609 c 0,-0.363803 0.0601,-0.512631 0.13346,-0.33073 0.0734,0.181901 0.0734,0.479558 0,0.661459 -0.0734,0.181901 -0.13346,0.03307 -0.13346,-0.330729 z m 35.43327,-0.683506 c 0.0127,-0.308227 0.0754,-0.37092 0.15986,-0.159854 0.0764,0.190995 0.067,0.419198 -0.0209,0.507119 -0.0879,0.08792 -0.15047,-0.06835 -0.13899,-0.347265 z m -43.94171,0.03815 c 0,-0.07414 0.34279,-0.312071 0.76176,-0.52873 1.28753,-0.665808 3.77603,-3.10954 4.84098,-4.753914 0.55652,-0.859306 1.01184,-1.452491 1.01184,-1.318189 0,0.324109 -1.21182,2.121416 -2.20977,3.277439 -1.20793,1.399262 -4.40481,3.811272 -4.40481,3.323394 z m 83.10004,-1.361067 c 0.0127,-0.308226 0.0754,-0.370919 0.15986,-0.159853 0.0764,0.190994 0.067,0.419197 -0.0209,0.507119 -0.0879,0.08792 -0.15047,-0.06835 -0.13899,-0.347266 z m 6.3709,-0.639411 c 0,-0.363802 0.0601,-0.51263 0.13346,-0.330729 0.0734,0.181901 0.0734,0.479557 0,0.661458 -0.0734,0.181902 -0.13346,0.03307 -0.13346,-0.330729 z m -6.11915,-0.448267 c -0.005,-0.173787 0.25985,-0.596339 0.58727,-0.939009 0.32742,-0.342667 0.46315,-0.438603 0.30163,-0.213191 -0.16153,0.225415 -0.4258,0.647967 -0.58727,0.939009 -0.16148,0.291042 -0.29721,0.386977 -0.30163,0.213191 z M 201.1623,24.117288 c -1.11445,-2.18245 -4.24087,-5.369261 -6.49351,-6.618949 -0.87313,-0.484381 -1.34938,-0.806024 -1.05833,-0.714761 2.32494,0.729033 6.2579,4.39539 7.76451,7.238221 0.48694,0.918808 0.84162,1.71431 0.78814,1.767777 -0.0535,0.05347 -0.50384,-0.699061 -1.00081,-1.672288 z m -32.81955,1.436452 c 0,-0.283949 0.78724,-1.750751 0.93964,-1.750751 0.0728,0 -0.0645,0.386953 -0.30504,0.859896 -0.49112,0.965703 -0.6346,1.167111 -0.6346,0.890855 z m 78.99371,-1.097706 c -0.2825,-0.213654 -0.38637,-0.388462 -0.23085,-0.388462 0.15552,0 0.43098,0.178594 0.61214,0.396875 0.41201,0.496443 0.28239,0.493583 -0.38129,-0.0084 z m 13.66202,-0.25617 c 0.005,-0.436562 0.0647,-0.583126 0.13179,-0.325694 0.0671,0.257432 0.0627,0.614619 -0.01,0.79375 -0.0725,0.179131 -0.12734,-0.03149 -0.12197,-0.468056 z m -16.50534,-0.313031 c 0.191,-0.07643 0.41921,-0.06703 0.50713,0.02088 0.0879,0.08792 -0.0684,0.150452 -0.34727,0.138964 -0.30824,-0.0127 -0.37092,-0.07539 -0.15986,-0.159851 z m 1.5875,0 c 0.191,-0.07643 0.41921,-0.06703 0.50713,0.02088 0.0879,0.08792 -0.0684,0.150452 -0.34727,0.138964 -0.30824,-0.0127 -0.37092,-0.07539 -0.15986,-0.159851 z m 18.94213,-3.920302 c 0,-2.328333 0.0408,-3.245414 0.09,-2.037958 0.0491,1.207457 0.0488,3.112457 0,4.233333 -0.0495,1.120878 -0.0897,0.132958 -0.0894,-2.195375 z m -95.19005,2.850168 c 1.03304,-1.880126 6.17731,-6.180124 7.35801,-6.150409 0.15407,0.0039 -0.43111,0.39083 -1.3004,0.859896 -1.5181,0.81915 -4.70638,3.692337 -5.93754,5.350761 l -0.58928,0.79375 z m -4.39229,-1.527252 c 0,-0.14552 0.11541,-0.443177 0.25648,-0.661458 0.14108,-0.218281 0.25649,-0.277812 0.25649,-0.132291 0,0.14552 -0.11541,0.443177 -0.25649,0.661458 -0.14107,0.218281 -0.25648,0.277812 -0.25648,0.132291 z m 94.33941,-1.578144 c -0.65611,-1.218308 -1.6065,-2.083853 -3.33283,-3.0353 -0.79927,-0.44051 -1.35919,-0.803084 -1.24425,-0.805719 0.43558,-0.01 2.32661,1.089051 3.21313,1.867415 0.92162,0.809197 2.15863,2.55713 1.95429,2.76147 -0.0593,0.05936 -0.32502,-0.295177 -0.59034,-0.787866 z m -119.88901,-4.176323 0.009,-4.828865 3.37384,-0.01236 3.37384,-0.01236 -3.30176,0.08636 -3.30175,0.08636 -0.0813,4.754859 -0.0813,4.754858 0.009,-4.828865 z m 101.0402,2.447176 c 0,-1.236927 0.0456,-1.742943 0.10128,-1.124479 0.0557,0.618463 0.0557,1.630495 0,2.248958 -0.0557,0.618464 -0.10128,0.112448 -0.10128,-1.124479 z m 0.83994,1.455208 c 0.65823,-1.138229 1.55864,-2.049806 2.56146,-2.593303 0.83426,-0.452128 0.84331,-0.452151 0.21032,-5.29e-4 -0.83672,0.596895 -1.8224,1.574964 -2.61408,2.593898 l -0.61672,0.79375 0.45902,-0.79375 z m -75.52401,-0.815797 c 0.0127,-0.308227 0.0754,-0.37092 0.15986,-0.159854 0.0764,0.190995 0.067,0.419198 -0.0209,0.507119 -0.0879,0.08792 -0.15047,-0.06835 -0.13899,-0.347265 z m 0.29527,-1.565453 c 0.005,-0.436562 0.0647,-0.583125 0.13179,-0.325694 0.0671,0.257432 0.0627,0.614619 -0.01,0.79375 -0.0725,0.179131 -0.12734,-0.03149 -0.12197,-0.468056 z m 11.32552,-0.661458 c 0.21828,-0.141065 0.51594,-0.256479 0.66146,-0.256479 0.14552,0 0.086,0.115414 -0.1323,0.256479 -0.21828,0.141065 -0.51593,0.256479 -0.66145,0.256479 -0.14552,0 -0.086,-0.115414 0.13229,-0.256479 z m 14.2875,0 c -0.21828,-0.141065 -0.27781,-0.256479 -0.13229,-0.256479 0.14552,0 0.44317,0.115414 0.66145,0.256479 0.21829,0.141065 0.27782,0.256479 0.1323,0.256479 -0.14552,0 -0.44318,-0.115414 -0.66146,-0.256479 z m -13.01419,-0.445323 c 0.191,-0.07643 0.4192,-0.06703 0.50712,0.02088 0.0879,0.08792 -0.0684,0.150452 -0.34726,0.138964 -0.30824,-0.0127 -0.37092,-0.07539 -0.15986,-0.15985 z m 11.90625,0 c 0.191,-0.07643 0.4192,-0.06703 0.50712,0.02088 0.0879,0.08792 -0.0684,0.150452 -0.34726,0.138964 -0.30824,-0.0127 -0.37092,-0.07539 -0.15986,-0.15985 z m 55.08294,-0.08384 c 0.21828,-0.141065 0.57547,-0.249936 0.79375,-0.241935 0.2617,0.0096 0.21661,0.092 -0.13229,0.241935 -0.72737,0.312558 -1.14512,0.312558 -0.66146,0 z M 180.19939,15.68475 c 0.191,-0.07643 0.4192,-0.06703 0.50713,0.02088 0.0879,0.08792 -0.0684,0.150453 -0.34727,0.138965 -0.30824,-0.0127 -0.37092,-0.07539 -0.15986,-0.159851 z m 9.78958,0 c 0.191,-0.07643 0.41921,-0.06703 0.50713,0.02088 0.0879,0.08792 -0.0684,0.150453 -0.34727,0.138965 -0.30824,-0.0127 -0.37092,-0.07539 -0.15986,-0.159851 z m 92.06868,-5.375764 c -0.042,-3.0560781 0.013,-5.5563905 0.12208,-5.5562503 0.10914,1.403e-4 0.19844,2.5005664 0.19844,5.5565043 0,3.055937 -0.0549,5.556249 -0.12208,5.556249 -0.0671,0 -0.15645,-2.500426 -0.19844,-5.556503 z m -100.53534,5.111181 c 0.191,-0.07643 0.4192,-0.06703 0.50712,0.02088 0.0879,0.08792 -0.0684,0.150453 -0.34726,0.138965 -0.30824,-0.0127 -0.37092,-0.07539 -0.15986,-0.159851 z m 6.86263,0.0055 c 0.1819,-0.0734 0.47955,-0.0734 0.66145,0 0.18191,0.0734 0.0331,0.133453 -0.33073,0.133453 -0.3638,0 -0.51263,-0.06006 -0.33072,-0.133453 z m 59.2832,-0.0055 c 0.191,-0.07643 0.41921,-0.06703 0.50713,0.02088 0.0879,0.08792 -0.0684,0.150453 -0.34727,0.138965 -0.30824,-0.0127 -0.37092,-0.07539 -0.15986,-0.159851 z m 5.55625,0 c 0.191,-0.07643 0.41921,-0.06703 0.50713,0.02088 0.0879,0.08792 -0.0684,0.150453 -0.34727,0.138965 -0.30824,-0.0127 -0.37092,-0.07539 -0.15986,-0.159851 z m -68.8082,-0.275244 c 0.47294,-0.05869 1.24684,-0.05869 1.71979,0 0.47294,0.05869 0.086,0.106715 -0.8599,0.106715 -0.94588,0 -1.33284,-0.04802 -0.85989,-0.106715 z m 65.48437,0.0019 c 0.40018,-0.06062 1.05503,-0.06062 1.45521,0 0.40018,0.06062 0.0728,0.110223 -0.7276,0.110223 -0.80037,0 -1.12779,-0.0496 -0.72761,-0.110223 z m 20.14225,-3.779202 c 0,-1.6734897 0.043,-2.358099 0.0955,-1.5213543 0.0525,0.8367443 0.0525,2.2059633 0,3.0427083 -0.0525,0.836745 -0.0955,0.152135 -0.0955,-1.521354 z m -103.51037,2.116666 c 0,-0.363802 0.0601,-0.51263 0.13346,-0.330729 0.0734,0.181901 0.0734,0.479558 0,0.661459 -0.0734,0.181901 -0.13346,0.03307 -0.13346,-0.33073 z M -95.711423,7.1342396 V 0.51965654 h 6.614583 6.614584 V 7.1342396 13.748823 h -6.614584 -6.614583 z m 12.964583,0 V 0.78423986 h -6.35 -6.35 V 7.1342396 13.484239 h 6.35 6.35 z m 5.291667,0 V 0.51965654 h 6.614584 6.614583 V 7.1342396 13.748823 h -6.614583 -6.614584 z m 12.964584,0 V 0.78423986 h -6.35 -6.350001 V 7.1342396 13.484239 h 6.350001 6.35 z M 166.24696,11.7424 c 0.0127,-0.308226 0.0754,-0.370919 0.15986,-0.159853 0.0764,0.190995 0.067,0.419198 -0.0209,0.507119 -0.0879,0.08792 -0.15047,-0.06835 -0.13899,-0.347266 z m -1.46611,-3.730982 c -0.97142,-1.8553879 -2.93267,-4.0147979 -4.64343,-5.1125922 -1.59029,-1.0204865 -1.73968,-1.3075777 -0.24397,-0.4688406 1.44054,0.8078001 4.16977,3.7271615 5.10211,5.4575338 0.4146,0.7695115 0.7094,1.4435428 0.65508,1.4978485 -0.0543,0.054306 -0.44569,-0.56397 -0.86979,-1.3739495 z M 270.53806,5.0997712 c 0.25466,-0.066548 0.67138,-0.066548 0.92604,0 0.25467,0.066551 0.0463,0.1210018 -0.46302,0.1210018 -0.50932,0 -0.71768,-0.054451 -0.46302,-0.1210018 z M 157.49483,1.4456982 c -0.3638,-0.2079681 -0.54239,-0.3781237 -0.39687,-0.3781237 0.14552,0 0.56224,0.1701556 0.92604,0.3781237 0.3638,0.207968 0.54239,0.3781237 0.39687,0.3781237 -0.14552,0 -0.56224,-0.1701557 -0.92604,-0.3781237 z m -3.22461,-1.10678223 c 0.191,-0.0764304 0.4192,-0.0670306 0.50712,0.0208889 0.0879,0.0879189 -0.0684,0.15045293 -0.34727,0.13896445 -0.30822,-0.0126947 -0.37091,-0.0753906 -0.15985,-0.15985335 z M 152.4016,0.07984471 c 0.1819,-0.07339859 0.47956,-0.07339859 0.66146,0 0.1819,0.07339885 0.0331,0.13345212 -0.33073,0.13345212 -0.3638,0 -0.51263,-0.0600533 -0.33073,-0.13345212 z m -2.24896,-0.27173898 c 0.25466,-0.0665498 0.67138,-0.0665498 0.92605,0 0.25466,0.0665501 0.0463,0.12100004 -0.46303,0.12100004 -0.50932,0 -0.71768,-0.05444993 -0.46302,-0.12100004 z M 130.1766,-0.47221528 c 2.9468,-0.0425799 7.76883,-0.0425799 10.71563,0 2.94679,0.0425799 0.53578,0.0774181 -5.35782,0.0774181 -5.89359,0 -8.30461,-0.0348382 -5.35781,-0.0774181 z"
         id="path6039" /><path
         style="fill:#f37c39;stroke-width:0.264583"
         d="M 32.479204,48.828095 C 28.885755,47.996673 26.4538,46.725933 23.981869,44.388085 18.483558,39.188009 17.386354,30.491309 21.364108,23.639061 c 1.197893,-2.063543 4.751621,-5.436682 6.749471,-6.406485 2.616192,-1.269963 5.45873,-1.897023 8.575135,-1.89166 5.468639,0.0094 9.451367,1.54737 12.850961,4.962488 3.194148,3.208737 4.767654,7.17202 4.767654,12.008574 v 2.338927 H 43.17579 32.044253 l 0.183279,1.521354 c 0.215612,1.789716 0.723736,3.137731 1.490327,3.95373 0.703866,0.749231 3.016387,1.240753 4.729186,1.005184 2.08121,-0.28624 3.164168,-1.253197 4.274378,-3.816527 0.04209,-0.09719 2.160125,-0.02998 4.70674,0.149341 2.546614,0.179324 5.144246,0.334116 5.772517,0.34398 1.338424,0.02101 1.33803,0.09482 -0.01558,2.920081 -1.028041,2.145745 -3.929644,5.101019 -6.153819,6.267646 -2.934613,1.539269 -4.88719,1.988325 -9.128125,2.099307 -2.660058,0.06961 -4.323244,-0.01222 -5.423959,-0.266906 z m 9.128125,-21.580168 c 0,-3.155534 -1.485424,-4.640437 -4.630208,-4.628581 -3.131799,0.0118 -4.32875,1.153137 -4.779164,4.55708 l -0.183801,1.389063 h 4.796587 4.796586 z m 27.652105,21.67228 c -3.764167,-0.629015 -7.033313,-2.293586 -9.09519,-4.631058 -1.292606,-1.465373 -2.837609,-4.308713 -2.50376,-4.607776 0.177355,-0.158877 8.302379,-1.326301 9.230765,-1.326301 0.143182,0 0.485053,0.417282 0.759711,0.927296 0.348692,0.64748 0.945685,1.146476 1.978398,1.653645 1.376455,0.675984 1.708343,0.725898 4.786305,0.719813 4.133903,-0.0082 5.027083,-0.355034 5.027083,-1.952236 0,-0.560528 -0.159919,-1.151864 -0.35538,-1.31408 -0.412872,-0.342654 -2.855537,-0.883714 -6.785523,-1.503021 -3.14502,-0.495607 -6.556219,-1.426197 -8.393298,-2.289725 -1.730324,-0.813348 -3.157524,-2.334186 -4.132617,-4.403757 -0.711758,-1.510654 -0.829802,-2.060276 -0.833771,-3.882041 -0.004,-1.86265 0.100029,-2.334799 0.850945,-3.860127 2.228014,-4.525738 7.402177,-7.114516 14.219709,-7.114516 4.918644,0 9.101029,1.278726 11.75653,3.594449 1.220375,1.064225 3.273351,3.985919 3.121301,4.442076 -0.04849,0.14546 -2.104803,0.643961 -4.56959,1.107781 l -4.481431,0.843307 -0.875776,-1.019522 c -1.026961,-1.195522 -2.786372,-1.827768 -5.059225,-1.818029 -3.060306,0.0131 -4.753684,0.862905 -4.414274,2.215227 0.3296,1.31322 0.838237,1.474406 7.57115,2.399292 6.312549,0.86714 8.893885,1.84581 10.975645,4.161229 1.942269,2.16027 2.386094,3.357573 2.384076,6.431481 -0.0013,2.185765 -0.105834,2.872202 -0.600372,3.947673 -1.70266,3.702761 -5.492083,6.198123 -10.907265,7.182514 -2.164763,0.393517 -7.554103,0.447336 -9.654146,0.09641 z m 35.847896,-0.253455 c -1.74472,-0.36835 -4.35886,-1.736315 -5.185328,-2.713448 -1.037894,-1.227103 -1.889196,-3.239333 -2.20712,-5.216982 -0.152058,-0.945886 -0.27737,-5.083307 -0.278471,-9.194271 l -0.002,-7.474479 h -2.38125 -2.38125 v -4.091111 -4.091115 l 2.447396,-0.07607 2.447396,-0.07607 0.07162,-5.191792 0.07163,-5.1917915 0.986706,-0.1631076 c 0.542689,-0.08971 3.278651,-0.1644201 6.079941,-0.1660208 l 5.09323,-0.00291 v 5.4158139 5.415815 l 3.24115,0.07429 3.24114,0.07429 v 3.96875 3.96875 l -3.24114,0.07429 -3.24115,0.07429 v 7.238585 c 0,8.620241 -0.0707,8.394054 2.67663,8.560712 0.92895,0.05635 2.19783,-0.01426 2.81975,-0.156932 l 1.13076,-0.25939 -0.0724,4.394457 -0.0724,4.394456 -0.92604,0.213159 c -1.44626,0.332901 -8.99363,0.47761 -10.31875,0.197845 z M -26.390589,24.185378 V -0.30306531 l 14.485938,0.0911333 c 15.9809209,0.10053822 15.5245861,0.05569 18.9342689,1.86084731 4.0690831,2.1542573 6.8365211,7.8210526 6.0524501,12.3934097 -0.719776,4.197398 -3.2159421,7.170647 -7.3027201,8.698463 -0.92007,0.343961 -0.7343749,0.562483 1.0352723,1.218292 4.6129338,1.709499 7.0664838,4.66752 7.6213418,9.188347 0.658183,5.362712 -2.16017,11.406353 -6.246207,13.394284 -3.803957,1.850694 -6.7654515,2.131603 -22.475656,2.131888 l -12.104688,2.23e-4 z m 23.0114323,13.617379 c 2.6125673,-0.560295 4.09847526,-2.922786 3.45230984,-5.48894 -0.76288902,-3.029712 -1.89243234,-3.533661 -8.27363744,-3.69131 l -4.6963537,-0.116025 v 4.792003 4.792004 h 4.0880184 c 2.2484107,0 4.6917585,-0.12948 5.4296629,-0.287732 z M -2.679228,17.833516 c 1.2498441,-0.934112 1.76912595,-1.85882 1.87905239,-3.346117 0.13983494,-1.891988 -0.47944879,-3.064317 -2.03241279,-3.84743 -1.0844186,-0.546841 -1.5422086,-0.595313 -5.6223959,-0.595313 h -4.4418537 v 4.254759 4.254762 l 4.7438544,-0.08757 c 4.3005217,-0.07939 4.8120671,-0.138552 5.4737556,-0.633087 z m -52.001929,-4.788829 c -2.501305,-0.916879 -4.543115,-4.2050676 -4.129894,-6.650897 0.561218,-3.321828 3.842797,-5.93569803 6.922082,-5.51363524 5.039741,0.69077334 7.364484,6.45346164 4.128513,10.23396624 -1.733333,2.025009 -4.532712,2.805911 -6.920701,1.930566 z m 268.059987,0.122494 c -1.20653,-0.408067 -3.14405,-2.178679 -3.81405,-3.4854775 -0.7511,-1.4649873 -0.7511,-3.6299404 0,-5.0949277 1.25661,-2.4509596 4.24619,-4.11713133 6.59625,-3.67625957 3.03654,0.56965977 5.42403,3.30913967 5.42403,6.22372337 0,3.1631754 -2.717,5.9923464 -5.9818,6.2287594 -0.74541,0.05398 -1.74641,-0.03414 -2.22443,-0.195818 z"
         id="path6037" /><path
         style="fill:#788f96;stroke-width:0.264583"
         d="m 182.44657,40.849312 -0.74236,-0.680762 0.85989,0.598225 c 0.47294,0.329026 0.8599,0.635368 0.8599,0.680763 0,0.208846 -0.29266,0.02973 -0.97743,-0.598226 z m 5.34305,-0.11299 c 0.2634,-0.291042 0.53843,-0.529167 0.61119,-0.529167 0.0728,0 -0.0832,0.238125 -0.3466,0.529167 -0.2634,0.291041 -0.53843,0.529166 -0.61119,0.529166 -0.0728,0 0.0832,-0.238125 0.3466,-0.529166 z m 1.47609,-4.387673 c 0.0127,-0.308226 0.0754,-0.370919 0.15986,-0.159853 0.0764,0.190995 0.067,0.419198 -0.0209,0.507119 -0.0879,0.08792 -0.15047,-0.06835 -0.13899,-0.347266 z m 0.31043,-2.888369 c 0.003,-0.582083 0.0571,-0.789053 0.12041,-0.459935 0.0633,0.329117 0.0609,0.805367 -0.005,1.058333 -0.0662,0.252965 -0.118,-0.01633 -0.11506,-0.598398 z m -0.0249,-3.307291 c 0,-0.363802 0.0601,-0.51263 0.13346,-0.330729 0.0734,0.181901 0.0734,0.479557 0,0.661458 -0.0734,0.181901 -0.13346,0.03307 -0.13346,-0.330729 z m -8.75215,-1.741839 c 0.0127,-0.308227 0.0754,-0.37092 0.15986,-0.159854 0.0764,0.190995 0.067,0.419198 -0.0209,0.507119 -0.0879,0.08792 -0.15047,-0.06835 -0.13899,-0.347265 z m 8.46667,-1.058334 c 0.0127,-0.308226 0.0754,-0.370919 0.15986,-0.159853 0.0764,0.190995 0.067,0.419198 -0.0209,0.507119 -0.0879,0.08792 -0.15047,-0.06835 -0.13899,-0.347266 z m -1.11305,-2.954514 c -0.32909,-0.419645 -0.31975,-0.429004 0.0999,-0.0999 0.44072,0.345644 0.5809,0.562917 0.36312,0.562917 -0.0549,0 -0.26329,-0.208359 -0.46302,-0.46302 z m -1.02458,-0.859896 c -0.23846,-0.154109 -0.27109,-0.258099 -0.0817,-0.260533 0.1733,-0.0021 0.3887,0.115012 0.47863,0.260533 0.20301,0.328488 0.11142,0.328488 -0.39688,0 z m -36.24791,-11.1125 c -0.15576,-0.291042 -0.22367,-0.529167 -0.15091,-0.529167 0.0728,0 0.25973,0.238125 0.41549,0.529167 0.15576,0.291042 0.22367,0.529167 0.15091,0.529167 -0.0728,0 -0.25973,-0.238125 -0.41549,-0.529167 z m -4.01836,-1.768239 c 0.19099,-0.07643 0.4192,-0.06703 0.50712,0.02088 0.0879,0.08792 -0.0684,0.150453 -0.34727,0.138965 -0.30822,-0.0127 -0.37092,-0.07539 -0.15985,-0.159851 z"
         id="path6035" /><path
         style="fill:#4b6a73;stroke-width:0.264583"
         d="m 180.64587,48.806288 c -0.87312,-0.195046 -2.10664,-0.542113 -2.74111,-0.771261 -4.21989,-1.524005 -8.35112,-5.934656 -9.85297,-10.519325 -0.8436,-2.575332 -0.91644,-7.98129 -0.13838,-10.27313 0.92982,-2.73894 2.08989,-4.578103 4.27691,-6.780635 1.71595,-1.728121 2.57402,-2.359941 4.36938,-3.21727 2.81726,-1.345316 5.34903,-1.908344 8.58134,-1.908344 5.50029,0 9.66147,1.583981 13.0928,4.983863 1.59131,1.576729 2.2929,2.528348 3.15521,4.279532 4.16359,8.455647 0.83407,18.513739 -7.47996,22.596101 -1.41367,0.694137 -3.26104,1.356244 -4.45466,1.596568 -2.45456,0.494194 -6.62905,0.500782 -8.80856,0.01389 z m 6.6679,-7.530089 c 1.704,-1.039 2.30579,-3.534849 2.29918,-9.53571 -0.005,-4.783616 -0.39159,-6.560256 -1.69871,-7.812558 -0.75081,-0.71932 -0.97906,-0.7864 -2.67586,-0.7864 -1.79705,0 -1.88275,0.03024 -2.74143,0.967205 -1.26497,1.380331 -1.50868,2.457194 -1.64846,7.283667 -0.18841,6.507019 0.44479,9.167706 2.38228,10.009984 1.24429,0.540922 3.08203,0.484126 4.083,-0.126188 z m 90.3019,7.390553 c -1.90437,-0.402058 -4.38513,-1.761421 -5.41923,-2.969538 -0.53263,-0.62225 -1.19425,-1.856092 -1.51921,-2.833161 -0.53332,-1.603441 -0.58298,-2.358985 -0.67455,-10.263668 l -0.0988,-8.532813 h -2.36178 -2.3618 v -4.101041 -4.101042 h 2.34529 2.3453 l 0.16824,-1.227553 c 0.0925,-0.675155 0.16825,-3.040221 0.16825,-5.2557038 V 5.3540834 l 1.22756,-0.1682565 c 0.67514,-0.092538 3.35405,-0.1682538 5.95313,-0.1682538 h 4.72556 v 5.4160519 5.416055 l 3.37344,0.07405 3.37344,0.07405 v 3.96875 3.96875 l -3.37344,0.07405 -3.37344,0.07405 0.0159,6.143659 c 0.009,3.37901 0.11004,6.71703 0.22529,7.417816 0.3284,1.997274 0.64127,2.169845 3.87826,2.139027 l 2.77257,-0.02641 -0.0725,4.249145 -0.0725,4.249147 -0.92604,0.213146 c -1.44629,0.332893 -8.99366,0.477591 -10.31875,0.197832 z m -373.06251,-6.34293 v -6.35 h 6.35 6.35 v 6.35 6.35 h -6.35 -6.35 z m 18.25625,0 v -6.35 h 6.350001 6.35 v 6.35 6.35 h -6.35 -6.350001 z m 18.256251,0 v -6.35 h 6.35 6.35 v 6.35 6.35 h -6.35 -6.35 z M 124.95108,24.199864 V -0.27409343 h 11.97934 c 13.92129,0 16.99879,0.25141342 20.43212,1.66918423 6.5314,2.6970994 10.28023,9.5399072 9.03663,16.4947172 -1.16274,6.502604 -6.12211,11.096495 -13.40226,12.414605 -1.24103,0.224697 -4.04094,0.362738 -7.47448,0.368511 l -5.4901,0.0092 v 8.995833 8.995833 h -7.54062 -7.54063 z m 24.80466,-4.612769 c 2.03213,-1.163876 2.7845,-4.090969 1.67787,-6.527747 -0.37766,-0.831594 -0.79511,-1.234374 -1.78013,-1.717554 -1.16264,-0.570314 -1.70153,-0.640423 -5.58625,-0.726778 l -4.29948,-0.09558 v 4.944285 4.944284 l 4.43177,-0.08845 c 4.12445,-0.08232 4.50974,-0.133107 5.55622,-0.732467 z m 79.44118,12.687349 V 15.865489 h 5.82083 5.82083 v 2.248959 c 0,1.236927 0.10893,2.248958 0.24204,2.248958 0.13314,0 0.67085,-0.58415 1.19497,-1.298109 1.95484,-2.663061 4.97358,-3.873249 9.15881,-3.671716 2.13477,0.102796 2.84338,0.255733 4.26302,0.920068 3.29867,1.543626 4.7656,3.566244 5.24037,7.225479 0.14155,1.091009 0.26104,7.192637 0.26553,13.559173 l 0.008,11.575521 h -6.35 -6.35 v -11.25329 c 0,-12.273269 -0.06,-12.822515 -1.45963,-13.354642 -1.69669,-0.645081 -3.8904,7.93e-4 -4.67505,1.376587 -0.26594,0.466262 -0.3787,3.251695 -0.4799,11.854262 l -0.1323,11.244791 -6.28385,0.07093 -6.28385,0.07093 z M 208.824,32.137364 V 15.865489 h 6.35 6.35 v 16.271875 16.271874 h -6.35 -6.35 z M -95.44684,24.596739 v -6.35 h 6.35 6.35 v 6.35 6.35 h -6.35 -6.35 z m 18.25625,0 v -6.35 h 6.350001 6.35 v 6.35 6.35 h -6.35 -6.350001 z m 18.256251,0 v -6.35 h 6.35 6.35 v 6.35 6.35 h -6.35 -6.35 z M -95.44684,7.1342396 V 0.78423986 h 6.35 6.35 V 7.1342396 13.484239 h -6.35 -6.35 z m 18.25625,0 V 0.78423986 h 6.350001 6.35 V 7.1342396 13.484239 h -6.35 -6.350001 z"
         id="path6033" /></g></g></svg>
